<mxfile host="app.diagrams.net" agent="Mozilla/5.0 (Windows NT 10.0; Win64; x64) AppleWebKit/537.36 (KHTML, like Gecko) Chrome/129.0.0.0 Safari/537.36" version="24.7.16">
  <diagram name="Page-1" id="FbU-AVs-QIVh-CV_VODR">
    <mxGraphModel dx="399" dy="186" grid="1" gridSize="10" guides="1" tooltips="1" connect="1" arrows="1" fold="1" page="1" pageScale="1" pageWidth="827" pageHeight="1169" math="0" shadow="0">
      <root>
        <mxCell id="0" />
        <mxCell id="1" parent="0" />
        <mxCell id="Hievig5KLjoYhDcm_fqx-1" value="" style="outlineConnect=0;dashed=0;verticalLabelPosition=bottom;verticalAlign=top;align=center;html=1;shape=mxgraph.aws3.toolkit_for_visual_studio;fillColor=#53B1CB;gradientColor=none;" vertex="1" parent="1">
          <mxGeometry x="106.5" y="100" width="70.5" height="78" as="geometry" />
        </mxCell>
        <mxCell id="Hievig5KLjoYhDcm_fqx-2" value="develop&lt;div&gt;&lt;br&gt;&lt;/div&gt;" style="text;html=1;align=center;verticalAlign=middle;resizable=0;points=[];autosize=1;strokeColor=none;fillColor=none;" vertex="1" parent="1">
          <mxGeometry x="125" y="173" width="70" height="40" as="geometry" />
        </mxCell>
        <mxCell id="Hievig5KLjoYhDcm_fqx-4" value="package and deploy" style="sketch=0;aspect=fixed;pointerEvents=1;shadow=0;dashed=0;html=1;strokeColor=none;labelPosition=center;verticalLabelPosition=bottom;verticalAlign=top;align=center;fillColor=#00188D;shape=mxgraph.mscae.enterprise.pack" vertex="1" parent="1">
          <mxGeometry x="414" y="120" width="50" height="45" as="geometry" />
        </mxCell>
        <mxCell id="Hievig5KLjoYhDcm_fqx-5" value="" style="sketch=0;aspect=fixed;pointerEvents=1;shadow=0;dashed=0;html=1;strokeColor=none;labelPosition=center;verticalLabelPosition=bottom;verticalAlign=top;align=center;fillColor=#00188D;shape=mxgraph.azure.script_file" vertex="1" parent="1">
          <mxGeometry x="130" y="200" width="47" height="50" as="geometry" />
        </mxCell>
        <mxCell id="Hievig5KLjoYhDcm_fqx-6" value="" style="shape=image;verticalLabelPosition=bottom;labelBackgroundColor=default;verticalAlign=top;aspect=fixed;imageAspect=0;image=data:image/png,iVBORw0KGgoAAAANSUhEUgAAAYMAAACQCAYAAADqUQeTAAAAAXNSR0IArs4c6QAAAARnQU1BAACxjwv8YQUAAAAJcEhZcwAAFiUAABYlAUlSJPAAAABhaVRYdFNuaXBNZXRhZGF0YQAAAAAAeyJjbGlwUG9pbnRzIjpbeyJ4IjowLCJ5IjowfSx7IngiOjM4NywieSI6MH0seyJ4IjozODcsInkiOjE0NH0seyJ4IjowLCJ5IjoxNDR9XX2tSYfFAABEKklEQVR4Xu19B2Ac1bX20a56tdx7xRRjm2J6MzYlCT0EUiihhCSk9/wvBVJI/vdeQpL/vTTSA3kpLwQCoYUSTDfY2LhgGxtXbOMqW5asrl395zv33tmZ0Z3dlbSSJet+2jOn3juzo9lz7525M5M38dzrO8jBwcHBYVAjprmDg4ODwyCGawwcHBwcHFxj4ODg4ODgGgMHBwcHB4ZrDBwcHBwcXGPg4ODg4OAaAwcHBwcHhmsMHBwcHBxcY+Dg4ODg4BoDBwcHBweGawwcHBwcHFxj4ODg4ODgGgMHBwcHB4ZrDBwcHBwcXGPg4ODg4OAaAwcHBwcHhmsMHBwcHBxcY+Dg4ODgQJS7117m5WnBwcHBwWGgIfPIAEk+G3JwcHBwGLBQjYEtuRtycHBwcDjsEXMJ38HBwcHBXUB2cHBwcHCNgYODg4ODawwcHPot8uNxqq4so7Ejh2mLg0PvIW/ivA/mZmqpg4NDjxHLy6ORw6ro2CMm0azpTEdOopLiIrrmS3fqCAeH3oFrDBwc+gEK8vPp7Dkz6KJzTqKZ3AhUlZdSeWkx5XHjsHn7Lrrk43foSAeH3kG/bAxi8XzKY4rxDyQeK6CC0nIqZMovKmMqplhBEcXzCykWy6MOTIiKx6ijPUEdHQlKJhKUaGtlaqFESxO1MbW3NFJb00FKtrdRMslxwpO8JtcOOvQPjB05lH73nc8IDwONwaWf+I7WHBx6B/2mMYjF4lRcOYxKhgyj4vJqKiyroIISbgAKi3krY5y3Ozh186aCyxaDa11UrYtoZPiVnuxIUpIbibbmBmprrKOW+lpqOrCb2psbpYyDw6GEawwcDjX6xQXk8mFjadLJF9Ckk+bR6KNPouoJ06m0ehQVFJeFGgIRGTrZix2q9iuP8kGXj/rL479YfgEVlQ+h8hETqHryMTTyqFOpYvRUHoq76+gOhx6mE2MjB4fexiHNgvlFJTRu1hk09fR3Uvnw0TwKKJHEzIe/jkA2h5ZK7Gap7CIoi/arH07Kgzhh2gZAzsuLU35xKQ2ZdDQNmz6H4rxuBwcHh8GKQ9YY4PTP2Jmn8SjgSJXAdcJWCRwRLJmGQGm80JrhsEKASxaaYNIyNM/n2ZVN2YlKhgyn4dNPoMLyah6JuDuyHQ4N5HiPIAeH3sYhawxwKqhq1CSZLcFHu07MKjljIT8A/RtQsqcoXWK0jkCxS4Tyq4/YjcPUY+J1gNgLiiuoavyRFI8XSKyDQ19CHdMODocOh6QxyMvPpxHTZqteuCRnBhJyPEYzxlXRzXOPoM++awZdOHssVZcWkumr4wdjfjTCpCwLYher8svH2MWh7WLVdhG0nT+8koKyKiofPQUOBwcHh14HbiwsKSq0UpzzYX6+8uP+Ez+g2+w9wSGZTVQ1ZjJNPHGeLzknqYi/9HtPnURXnDyRigviEpdMdtDyt/bRfz22it7e1+DFm8QOdHBZJfoSuyy0LjFaV4rPnuQFPtoPlkzQ3nWLqK2xXmIcHLIBfrjFhYXU0NSsLV3DmBHV9JtvfypyNtEVn/53rTkcTjjp2CPoorPnyPETxqPPL6GiggKaf9ps+v3f/0Wb396tPUTHTptA733nWfTTPz9Ku/cd0Nae4ZCMDDBTSKdgLwmfMHkoXXLieK8hAHAfwfGThtL7Tpuq4timErmUFFlU1KUEVavYUzHaquxKUnb5YOFZZbRSOmy8aA4OmVBRVkKXnnsy3XX7x+jy+adoq4NDdli35W36n4efZXpG7n0aUllG9/xjgdAbG7fRkZPH0hXzT6X5p87WJRSufseZfLydKsdfrnBIGgPcQCbZVydnJP1jxlZSeXHn8/W4pjBv5hgWEC6F1MfIqAEMgCB1GlXHCFPrko+2K13Hg4udqKB8COXFUo2Sg4NBPBajYUMq6LijJtNXPnwVPfjjr9Idn7qWTp45nSrLSnWUg0N2qDvYSBu37aQNb+2k/fUNVH+wiTZsZZ3pAPuAvfvr6KwTj/FOl5eVFNM5Jx2bsxGBwSFpDDDfH4lXJWPk+Q7KtwyTDArzYxSXc2Mq3kvmIiNCCapOqEoWiAt2CEpWAljneHCch8Ndzg4OYYwbNZR++OWb6Vff+iS9l3tn1ZXlcswY6gn89YTJ4fBH1P96xbrNchpx4pgRor/jzBPorR17aOvOPaLnCoekMZBuvi85tyeStLO2idqY27B+Z53y6XgIiik5Zdc2n2zi/WWVnASDoO3az5TE9uXwwozD4YPK8lKafeRkKsh3I0eHvgES/6btu2n+qbPkgvLF58yhh55ZTMmEylu5wiFqDFQy9yfnhet206bdB5Xbh/rmNrr7mXWSpE28Ysx1WbkQLCZRYFJcBUL0ZBVvYowdsijarm0ODhbI8WOhnsJWpyGHwQn87xPJJD363Ks096SZcuG4vLSEnl+yWkfkDoemMVAZVxE+/IV3HWikHz2ykv65fBtt3nNQRgpLN+6ln/xzFS3dtIfDVLz8LvADkYKqLOBxvUzZlS6Ejxi0jAXANl0jFFk6ODg49Be8+NoaeYrtleefTguXv0HtiYT25A6HaGQg+deXkHnJbMPuevrp46vpq39eRF/8w8v03b+/Rgte306t7fzFJVZKyp9IupJgg+DTJQ66sJRulnAwKZmNkIzu4BABOUYs1FPY6gQ5DB5E/b8P1DfSqg1b6dyTZ9K/Xl4htlwfH4ekMVCbz18EEr6Q1iC3tCVoT10T7aptpAONLTJEkgATKzJEr5TA7BTh8sHCxEPTugpSpD3qw39iF6ODQ5eRyx+mH71Vr0P/wls79tKGbTu1prB9V43YAVwneHLhMtq2ay+1trXTmo1bqamlTXy5wCEcGSDxWpKzyPLxZCwgqxCTtFNlRRcRdonQdrFqe7r4lKwMIjg4WIFjxUa5QG/V69C/keT/84NPv0J3P7hAWxT++eJrYof/1VXr6Tu/uJf21zXQwcZm+tEfHqIde/bpyJ7jEI0MVMKVw9x3wAv32bWg7X5ZFMW1nLIrrsypskrVuogwsq7tWhC7inBw6FuYYzOMKLuDQy5xaBqD9nZK4G1jbW2UYJI3kLW1Kl3bhVgWPw+JVEyblE2CRGZbguUkringB4NkrkWd2E2Sh1FEaDpIucAhheIdHBwcBhEOSWNQs2k17Vy9iHauYXpjsaK1r9Iupt2gdSy/uYT5UtrzJtN60Gu0Z8My5stoL/O9G5czraAa5g27t1JHMvWMonBih6xEY/fpkMQkFq1DVrqDQxhyPFkoF+iteh0cMuGweCF++YiJNGTSDMrDO5H525j7DqCYH1PqhwWufZL4lS9lT/LopJXqtrxOiZbB8UpMPPJjSEUZjR1RTcOrK6myrISKCguo5sBBefDann11cuOLXMzvZYweXk2lxYW0cdsubelfmDl9Iv3ujk9pLYhf3vsE/eq+J7XWNeAO01/c/jHhYWx5ezdd9fnva21gAXfzj+L/6eSxI6i6skyetImbTusbm2jn3v383fZ4j13oD8CxP2H0cDkOy0qL5EFxza1tVN/QRNt318j24uLt4YicNAZ4a1i8AC+xL+CEzIMN3L3r1ZqpevarTwS0JxTgV0uHjqHKsdNYwnpNkkdyV1H+hkC5TIySISim7kpOtrVQ3VurpDGoKM2jkdXpB1CY8tvU0kF1DUlqatXGfggk/WJO8riLFknn5JlH0PFHTZGHYaExSIcW/kEsXbORnnxpGS16fT3tO1BPbZjy2wNge0o48Vfx9syaPokuPuck3qZp9Iu/PkF3/yN4Ia0nKC0polNnTddaEHUHm2jJ6g1aCwL76oRjplCxJDCFSWNG0Cc+cJHWgnhy4XKZ7RGFV1a+SY1NLVoLAv+Pu2671frU0nSNgdmHFaXFcjMSEtn4UcNo+JAKthfJhceGxmbatH0Xrd20nfbVNXDybeBjtncadjy7aWhVOR09ZTydd9os3u9HyrOcsJ02oIOxiRt+zKP/1ysr6e3d++R5Pfgd9iYKOV/huKvmbcUd5XOOmUrHHjGB/w+d978fmN//+ptv0dO8rQtXrKVde2v5t9+Pf/RdQI8ag1h+vry/uGzYaCquqFYvsC8oog5pDFS1/mQbTsh+WSVnxMGu/Z5d69CEBe0deeodx8okRhUHTWRRtB0REqjtKVnZOyjBjUH91tXSGFx5VjH9x0fKVfkINDZ30Nt7k7RqczstWN5Czy5vowa29SeMHFolCfH4o6fwwT+JJnBS6+6z0JGckPgeXLCIdtV072FZ2B48bAsPfJvNDYG/R/zTPz+W08Zg0tgRdO8PvqS1IFa+uYU+dPtPtRaESdC23np3cPUXvi89SxvSrQv7++ov3Kk1hQL+7U2fOJobq6l0zNTxLI+RhgQjuiigQX+DG4SFy9fSYy8spR179mtPbjCRG6LzTz+O5p0yk6ZNGC3P6u8K0ANfunojPb1oJS1gQm8810CnZ86MaXTijKnyO5g6fpTsy+5gz/46eokbsUeeW8LH0Vt9MnLuTcSrphz3TS13CWgAJh4/l4ZOOJLKhvIOLa2geD73oPJiqhcAjgTNsnAsJfmoBARZ2ZWs7CpG2ZlCMUYO2yVWcroskM8ZrEFQivBUowAVMgQlm4ZA5GSCWuv2UEeijWZOyaeLTi3iAzsvkkqK1Ojh2ClxmjurgCYMz6NX3minHE4B7jbQu33/u86mz11/KV145vHc+5koPwi137oHlJ/FP6Qzjj+G1mzcJj+KrgKP5P3iDZfTUTwqCT+GdzGPPJav3ay1ngPbi4fK2YAnP/5jwWKtBYHtumTuSTl7TPC9T7wkNw/ZkG5dB+obpKwBkv8XbriMrr1kLp0zZwZNnzRWHpiXKfnCP3r4EGmAzz5xBm3btY+27lRz2HsCjAbQAHz1w1cxn0UjuKGP4QxBF4Htw8gGI1Y0cms380jmQOdH1HQHONqxfz/3wcvosnknS6do+JBK2fbuooxHnEfxCOiM446Shnb1hq3aMzDR5T0Ri+fT8KkzacopF1DpkOEUKyjgNIpknEq2wqBLgtW60oyi/FqWSJGZ5KP+5OOPV1YlG7sKUh4RYffFeVwk4RnX1S1IBTxc5x7g3EK686MlVFna/YTbU6ARwI/qt3d8kj51zUXSO4YN3zFMeI56axuPZpqaqZYTDwi9MhzgtngQfrhTxo2kO794A53OP4aujjKKeJiOh73Z6gblGrZ1gNLBFt8TSgdbvJ+QtPA//Oot76Hf8f90Lo+qcCoIL0Wxxacjk3Tv+OQH5KFnmRqRdCgtLuKG9gz65sfeJ9uHx9Hb1glqb0/wKLqFmltapRdtiwHJ6TlO1j/44o1ybPUkYZvfwa+//Qm67aNX0wxuSLHN4XXi9A9Op+2vO0g1tXVCaITT/QZAvJDTYF+88XL66NUXyvoGKro0MsD1gFFHnUAjps3iUQAaAewQdmDHIBkK1A4SXT4SIEvOOor74lWcigno8lE2QNkhQDJ2lqLWJXYRlMX4s1mXb2Rw7OR8uvCkDI+zlgvWKK/rYz5tTIyGlhMtXJOkvr7ehJ7wzVeeR5++5mIaNWyItgaB/YZe12trNslDr556eaWc+nnipWX0zOKV9OKytbRy3RbpOePcalTvGOelj5oyll5fv1Weu54tZkybQGeecLTWgpCRwbrcjgyuvvAMrQWRbmSAUy7ohR9saJY4EC584py4DfBv2rbbiw3TE7x/cbOQDXjuTNTIANcZcFh99rpL6JRZ0yNHdUi2GKXheg4e4YIGN10PHefNcW4fT8TszggBxwUS4A2Xz5O6bEAHA6finuNj7OlXVsi59sWr1vOIcjsfL/VUXFQg39n2nbBPzuBj5CDv8/Vv7ZA3H2YL1IdrYTe/+zz60JXnyymsMHA9ZevOGjlt9tTCFXLq7NHnl8qNXrh+sXD5Olq1/i3aVVMrowBca0s3oj5qyji5BoUX1nRlW/sLunTNYPTRc7ghmMk7BD06ToBc0p+MsfBaTGjg4hdF2zWXj/arAG1XuvGJx9i9mFS86IEYUbQdXOvwiF0ClF/sYEo2SLa3etcMrp5bTHfeWqE9YZhymkyjAJWSdLApSV/5TSv94+W+aw0wE+ffP3udnBeN6vGtf2snPfD0K5J00RNq4N5a1AVFJEQkv+svnUuXzzslspeGc9G3fvsuOe+bDa664HTpTdmAawZ/ePhZrfUc6LH+7/e/oLUgXucf+y3f+JnWgsB3rSwvCSRUnNb64Zdu0loQf3rkOfrjo89rrTNq6xoizyvj9M3Pv/5R6zUD9Frx/7FdD4AP56txYX8FJ93GZu51cyzeD4LrMhdxzx+9/3QjNyS7m277SZdOyWBbbn73fLrmonMiH+f98op19LsHnpaZaPXcoPofrobtwYV5HFvzT5lFN14xT3rsNuCC8n//6VF69LklksAzAY95vujsE+nGy+fTGN6vtgSO6yW/f3CBNEz4v+AisMklYeC7jqiupCvPO5Xew8et7f9ggAvgn/r3X9N25gMNWY4M8qh8xDhpDHBdQCVPfNQfPqJpu2gie4rSJUYYJG2XAOWHrjSRxePZtU3MJl5CvBitKF2JStdllTlVVqnK50d2IwOUCyZ/JUNRvJA7SyVFHfTM8gQ199H1g+9++lo68/ijO/UI8Z03cw/wx/yj+uE9/5AkiCl9LTxsMfvLBiQW9GbRcHRwbwdTK23va8WU1DLuyS16/c209RlgZHAGb6cNWNcKHpXkChlHBs/YRwb4Hs0tbdTECdYQeodoFG3AbKEXX3sjEO+ndPtFRgbn2EcG+F/6G3YkRCTuZ19dRXf84m/0h4eeoTWYKcQ2nN5Dbxx8595aGfVhX+JiaboeOPbRSzwazCbZAueedCx94v3vso4IcFz97C+P0Q/u/oc0NNiH4XqhYTZaHW8nRoHohWNGGV77GN5GJF80wpjNVlOb+d3k53Hj8rWPXCUjF39d2P+19Y30l8deoNt+8md58Bv2U6ZZcfgNYDvVLLqDcgoraiSEfdzc2kqvrrLPUOvPiB5D+oBZQ7hQLDOF8E9lMglW/qvQtCweHSMexHqyWuBPuJhNvHzErh3aLtGKK0HbRfJk8UiMUkxZrWgxWFbZdUzWQDlO/F5DgPLQtez5FD9leh4dMTa6V5ZLYC0TRg9TSggYAXzph/fIMLg7U0Ixt/ov/3xBTiVF4fzTjpOpqg69B1zPue/JhfTlH91D3+GGAKdPMmEJJ6Y7f/9A2kSKmWbTJ43RWnocOWksff6Dl1l7yOg4/PiPj9D9T72iLdkBp1a+9uM/0rI3Nll/kzjdiZEk7gPIhOqqCuuoGKOy/+Vj+Df3/yvrEawf2C7MoPvJnx+Vax9RwAvue3Id5lAhq8aguKySKkaOQ+qThOdxJah/nnxSsnhEVopfBldisKyyqxjFxartELRdPlgoWTSRRQnJqTuTvbp1WaNnD1XOJHqRQ8mfFzpO2cpKOujKM/umMQDwnWyEofa2XTU6qnuQH/qfHpHenm0dVeUl3CDMzuoimq28od6AbT2GugpbHaCewlanIfSskdQ//73fcTJ6jFat35r1VEaUXfz6BvrTo89b6wZhZIAeb7pz4gDu2fjMdRfL6R1bPZj19PhLywOnhLIFns6JG/dwzcNWN17sgtNJmWArC0IPH7O5urNtfuDaD0ZctnWAcGF/4pjO1yj6O7JqDKonTKdYHD9w/rIwyJeGoHa85D5ZKFk0kVW8yMohsqgmRklwpHThsImi/CIi4eKDhWdV8Vr3ympZVBMjInPYlZYReXmIRBmsG7Lh2iY1GVmTscu6EnTpKTzU7d5U5n4HDLNxrtV2OgGJ5OwTj6FRw+0XrQ93eMdYjoHk9T8PPSMju9Ubt8kMl65C9YpfpC077Pc54NQfevzqDmE78P8964Sj6ejJ47QliDd5lIJed1t7966RYf8tW7uZe9/203ZY/wWnH09HT7Gvv6+AC/rPvLqKGiJuIATGZrh5rT8iY2OAi8WVoyaxhMQGhkSqDno5+OWDhWfVdq1DFj9ELUsMnBDFoWJF1TFihj0lK1EULBWXeHGJLhI+RmbSITCKXVTPaIHPV1HCPSXRmTixpxK9L/EHkj/0oFxZ2kFnHMMhfQT5jiHKJTD7YtvOGut60GNEg5ANbOVBuYZtHX7qKmx1gHIBW7242Pmz/3087amJbIAG4f6nXrauAzRmxJDA3dZhYEbNvJNnyh3P4bI4jYiGoKe9buDPj70gN9qF1wEaUlEq25DuRjFbOUO5AkZmtXUHresAYYrtQEPGxqC4cgjlF5fyHtY7WQQlQ1C6LBUXu4T47BAhKb8KEaPSRVWyQFywQ1AyBKXLUnEdL9yzax3RymyM2g5V8wjA25FQvZsxw7CLfAlf6sIBDw5d+8QP7rN58Uk6dzbk3of3HUOIsncHGGrjAnQULp17spa6h1xu60BC1PdO5CDBGuB0UdSdvThVlO5F/6OGVtFJx+KxL52xfutOmYaZC2D7/sKjGBswwwvXN9AodAe5OrYwjXrXvu7dfd9fkbExKBs6GntQ70QmfHyy+BDoxWh/Jzu4qCLLRynK6JP99ftl8UmMsWvu2YPr0gv1ETnF0yHZ1syknjcyazLvIq8ekE7ygeSvdb8Mn69ROHkapvuxeBgA0/DWbd4u89ptwEVszPF26H/AnP2ox1DggnA8TY/2vNNm8+igWGsp4Df1+ptbcvrAuUUr34y8s/2ISWNkuvChBE6T4trZ4YSMjUHpsFHyz0ZCAzOyfFiGZmQRVZC2Z5mcmUQD1zHKrGQTD02pIim/ZweHxEthWpcQifB4JrQeqCFMzRlRlUfHTeMMLoneJHep0GfTMrh/RGBidJnqyg6aOBwxvQvZTxbKNd7aWSP3J9jWBTot4sFwBrYyhnoDtvUY6ipsdRjqCWz1gXIJXG/YW1tnXQ963VEXkGGde9IMaznUiXtXevrgQj/qG5vlUSe29altOVYFRsBWDpRLYEKFbR2ggYi0jUEsv4CKSipFxvdTXxJCSMYCUEFKEw4JO8enS4ixg4tJ+Y2uDIrw0fHqIwaPeKm5OMUMQXtYB2dNOTIi2d4i9xgAV5xZQCUFqnwq+Rvusws3svGDazslqKSQG4ORsB8ewOOHMX88Cnjap0P/Q3si2a335mJSwMQx9t44bnTbtrtnM9XCUE9aVdcNbDh99pFaOnTINqcMFKRtDAqKy+Sx1F4ylqRndoJKtyoJK1J/gJa0y9Mh+coCnq4CtQe6sJRulnAwqT9AS6JgwZpycE7WulIzAjebNe7awuUTNLwqRu+fi4tUJrmrujrLxg8OG3xaNjEslxQkaGw1bL0P7Esb5RIYwuMZM7b1gPA8eNzMlA62cqDegG09hroKWx2gnsJWp6GcgbvVuAZhWwcoCpjWiR65rUxLayvtyfH5c5yGwd28Uc8Gwh3bUY8FscUbyiVs9RsaiEjfGBSVcmMghwB/QWGQlI4AGPUXh0WJ4LArWemQWRIhVdbTdYB4xG40rYuqZOPRRjYFZRWi7eCiyjI9OGm3HNhNbQ37CRMVrjo7nyaM4O8eSPSQNddJ3rN7cdoucupCc1F+ksYO7aABOMnACkyva2qJnt1SyDsRD/ByODyAR1JHAc9Bwkvac42aA/Vpp9FOHTdKSw65QPrTRIVFnLzwHCJoSKwqsSnVJFyISHwiKZtPViHGzlxUrYsIu0Rou1i1PV18SsYCsgrpXDYbtBzYS0173uJcnqDpY2N004VxKvJOEYFzYg8keiaPmziLrOPyWB5ekaAs7scaEEDPLd2zbAoL4jSkvHszPhz6H/CMnyi0csLGqaJcQ90ght+PHWNH5uY9Ew4KaRuD/IJCjjAjAyS2VIIVXUTY5ePJWHSWRVFcy/4Y2JQ5Fa9UrYsYtJuy/npMjMDwCKARS7a2UMPOzUzr2ZCkiTwa+NknC2m0HGd8IEodhqPukAyfJxu/kRGX0qvLO6ggDlvvAd8/inINPKHRth4QLkbizVtRsJUx1BuwrQfUVdjq8FNPYasTlEvY6jcUBbwvwRYPwv0P4LkGZq3hBrbw+gxhKmwUbPGGcglb/YYGGtI2BnkxnDNXzyeX3Aaj74sqO+vargVtF8mLUSFKhpayI0aLvng8Yz/Z3qYo0d5ZTihK8MGSBImdDxzmIMQY2U94Iml7SyO11tfwSGAr1W9fTS21b3PyIjrtKG4IPlVEU8fg9JDeKEnu2DgtS/JPJXgVkzod5Pk8gk3FVJbwyCAf+uGBhmb745gB3NGKxxM7HB5I97/EQ/h6A7iBTX4+EUh3g5xD15H+NJF52JL8Q5DQVCIXTZKg1oVD0slcSTpGVJ9dFEVaFCsLrQcPUN329bRn3au0Z81C2vvGK7R37SKqAa1bTPvYvo/5/jdfZVpC+9cvpdoNTBtfEzqwaRnTcqG6zSvstOV1OrhtDTXsWE/N+7ZToqWJMJvu2vn59KOPFdJMudnaJHpwTZ7N2LUsPm0Tgs3EmDjFSwqSvX7NAPs5inIN3GdgWw8ISHcDE2ArZyjXsK3DUFdhqwPUU9jqNJRr2NYBioIt1iMc470E6/p8FAVbLCiXsNVvaCACE4u1qOHTU19Kf0kRzZf16ZDw0fHKrWxYpOyw6XitJ5Pt1HSghvas5QaAk3/9zo3ca99H7c0N0oNvb21SXGSmtmZlY0qAWBfu1/3U3hLQMXW0g0cHxfkJGjUkj847Pp/uu62I7rihkMZU4+tj27CdOpF7MpPHjQ3XEUIxXpzfDo5HWndwAxu9vwU91WXORxrkfH12YL66zFnvZnkPmcp3Vc+EntbX1fKZ6gujp/VnWl9EfLrHTOTHfI1+V9efRlfHj1YsaMczkDLVF0bYnal8V+sPo6f196GOd+ZpUcOnI1l3JPXr6ZRBZJXctK5lZRcTL/QbzeD17BIUiG9rOki1W9ZQDffyW+r3si1Jwyry6PQZBfTus4ro2vOK6br5RXQduKFu6UzzC4VuuiCfPn1FIX37xiL67ReK6K7PFNKc6TxAMqd6ZON8SV1IbbvXEJgYz8akvpSWtc8rrwgXkfOkjA851tVTWtV+95MHvwz0QMdz9m3rAslpPiZWdLSGT7eVM+TBLwPd1G3rMBRAFrqtDpDxB9AF3VYnKIAc6LZ1eIT/mR9sA9LdYBWYQsx6AD3QMbLES3Bs6wQdbGyxlrfFGpKfuB+w+dFF3bYOQzpAcYN+rHMWNC2D5r6WAvPt+WsZhT9GhgoPBCVDUEyXABeD9nt2pbc1H6R9G1dQ457tfAAmaOywON12fTn9/dtD6KefqaLvfqiCvvHBcrr9hm7SB8uYSplK6Pbri5kzMf/atUX02SsL6L1nx2nm5DzuretkLRumZb29wUSv7X6bsXs2cNjg6zxqaG3nJNm5axLk4Za7q36PByGbAvS0fp+/LOLNVADu8VAzQezlzbGRGfbyKWT2Z7eu7OpPV5OspxvbB6TbRLX96ct33x9CRPma2nQzx/KpqEBfU8jh9uEJqlFv1gNwJ3W68jboLORDpvLR/i4dV92oX6Hv/OgSa0Vz3xdMtrXxItXTFARkqJAhgGFXi9EXo3Utw97W0kQ165ZSa0Mtt/5JuvCkQvrr7VV0y0UlNGlUnIZV5nGiyaOiQqaCrhIeF93BHHP7NXm2JBXwiDaGpK23U8jIgaQOMr40owavrJ+bsr4Yptb2JCUSkP0wuuZSzo8u+j0eRpblu+DHKyGj0M7HjXrEb3T57JCpfLb+TMhUPsofQre3L2wPI8vyvbT9O/ZEv8YRPfiqCn0s5HD78BpM21v1DNQzlqLLW9HJnal8Jn8mZCrff/w8ClMtg+L6PK/WE22t3BaYHi6DuU7rwv0NgfJoORQvGmSmRGsL7d/8OrW3NHDCj9HHLiul//pkJU0Ymf5iY1YIJGhwTZ4NhO8DG7ZK+zyCzV/WyJqbGGtZJv+6/PVImSTtPxjjJBm9v3Ohq81T+9pP8Nniu6vjTU5D00w3bGtrl6mnUeVZsJYDKXcwvqe6bT0gXog/U3m/bqsHlIpLXz5Kt9UJMv5M5bPVbeswFFV+w7Zd1ngQGoNhVRWB+HD57uiYOop3OdvW2cod1S07aiLL28qAOEQQju+ublsHSKHn9felHjMbrnjqi4DjgmsHpncpA7wIEW4e9WB0+D1Zw8SbsvhrrNlGrXV7uRXqoPedW0i3cmNQWqQ2qEfolITBjYyEbLiJ6XwaJ5DMvbJaDtQBgs0X469H/NoucaoB2n8wj8xjYWz7Oxe6Ihvs8d3VcZ4Yz7WPAp5vX3NAPRANCJdnQfEIhON7qkfBeDOVD+tRyLa8XY9GduWz16MQFf/Gpu2RZTHFc8RQPMOs+9tj04dVlUe+a3jz9j1yB3xU+Uhodzi+u3p69Lz+vtRTs4l0S+HX25obKSmzCLgQ/6kPFqoiwOjKYnxgkJVN2TkltjZTw76d4jtiXAF9+OJcNASoW22jkn0JWThs8GnZizE2I/vsXrzxg4diArKJg83oQRmX1HfUxjhJ+vd3mDNZ7YZn9qvV8h7vRBIUUc7w7P14cFkR/1Dt68LFvWZ1njmiPLitHEiF+ssZzmS1Gx7tt60H5CFDeb/fVo+hbMqn9CC31Wcom/Jd8dvWAYoqX8ujPDyZ1FamqDCfJowezqG4BGkvrzhTlv7CwgIaOawq8gLyolXrJS6qvK0MCCGCQDnDmax2w4N+W/2GPKQp35kfWn9qNpFwJp/e3oKpmngYmXZpfypE60pRFLBrm5g7qKWuhtoa1DPKP3JxMY0d3pNTQ6Zuk4R1Qtbr9nSTqGELJ23Pb+JDNn+9/rIi6wbIK2v84CbGyB3U1NxBW/bESQZUgNjDnMlqNzwLv5AN2pepfJb+8SOHyjndKLy+YauajhhR3uMWlKDecFxU+Wz9mZCpfNgfhWzLR/EoZFW+C/4opCn/wrI3lBwCLvJOGTeSRwjci09TnhdZ+0uLCmji6GEih4FHZS96XTcGEeUjYdyBcoYzWe2GW/yZkKl8P/KrawZMAc4tCDimKbY01EqgSeyqLDh0+Wi7SNpuj2+s2YlV0ISR+XTZGemfaJkeqm5vxo6QPxmDw6/tAdn4wWGDD/XoOPBAnL+sjvfHmnoCZX0+XU9Dcx5t2l0Q2L/YGVbeAz98dvjierj+/Hg+TZswKu1dqS+vWBdZngWRo4DTA9Zyhndj+6MgHl9cVPmgPwISAn+m8lH2KGRZ3vAs/FFIV/6F19ZGvnrzmCnjqLK8VMXnYPvwKJOoh+Nt3LaLtu/al6Z8Gog7opzh2fpVZdEIlzM8V+sP2w3vpl9dM2AKcE5mRm/cv5t1mIKJXfKdLEwZiFpXCj4C2DF/uaVevTf3wjkF3XxgG+pHckXFfo6kC1n7w7KUAUGGT+ueDzYtB8pqnz/Ws2k94GNulZNUwwOitdvVaRXYvX1l4z3wG19nwrYq2cR4ephn8JeXFtGMqeM5DiZl81NNbR0tXrUhsjwLkY8mBk3lXqZMKdR6J97N7beRvNhfyx7PUH8UcTHFc7h9itSMPl4o3s36DY+6F8VQVHm86vH19VtFDhMeZDfriAkiR5X3eBb+OTOmUkVpseh+wnuc8dL82vrGyPJpyTzWnmVe2Hm2fs2jiBd2nqv1h+2Gd9OvZxNFtxzNdXv5B4ODh82mEiWlKoMuXKzaDkHb+YNTTjgIUe8JR9gvCqUH6kGl4Ob0A2SVbDsneBBkxIV9sGkZ3F+P+HWMxHVh9GFiLPU8+0YJNbXHO+3fXOuQ7bDHd0efPnEMHTlpDNvteOT51yiJH11Eeej766LnreM59dMncq8wTfmu6lFQnszljY5/ZxTyC+J6Xnz29QX0SGRZvgt6FNKVx9vHMOLD5AAb3nfhGXJvQFT5bHXcs3D5uSexvTPqDjbSizxCQaMQVT4txB2O76bOPC3C8f1c55EBy5zIhPMirLc1NOjz/KkELwJTSpVg+Si78qQaCO6BJdqUj01jh0fPHbbCJFXUaxJvIMEbu4kzPs29spzYYfPqMX5j85fVMWFboKxf9tu03ef728IKsUt1XIfwXtGjiRf4hOK7pvNhQzdcek7kxeOa2np6etEqlu3ljb7+reipilUVpfLS83y5w9levut6BMHdhfrwdjckIltdJYWF/KPCsZ2KF56lbqtTke6MiZyK744ujbTonUkiQ/F+HXeUP7fkDdq5t5b1VDlDU8aNoEvOmRNZPlv9XWcdL9cLbOt4ecWbtGYzZjZFlxeLyJ2JQ+FlWYIU764u3E4CkUVQvJ/ruFivWwgwxY2ujB1Uv/dtr5CqgElUJQvEBTsEJSsBTMWZ+tVKs4QkVFRikqtUHpT9SdjI4kOMidPcL3vxmjqV9cta71TWL+u4UNlXNxTR+t1IFJ33r5/nwh8FzPgYUV0p87bD5QzPVH9Bfj5de/GZdMzUcWzsDJxyeW7pGtq574C1vL9+vLhk3ZYdKNYJ6F2/88zj6AgeHZh48O7sH1zXGD/KfiFSgP+djs+mfjxSGb1TG4ZWlcl+DpczPFP90ciufLZ+HJk2qN8oCzouzFF+H4/o/vTPF+UhhWHA/57zT6Fp/H+L4YmMupzh2WwfGpT3Xni6yGHg/Rm/fWCB3NnuL2e4qV9nJzss5QzPZvv8OgtYRCMU3+X6Q7y3/WpkwAtwSeY+3fBGbgzwSGjJbbCxSxwSpGR/8g/K3KvxxYgrK6AwDjiphMmfaMG1LXzKKBBnyobqCRDbAmW1jDps9XhljE9zfz3gWm5n9Z7nK1VxXqgwO8+N305oCL77yffRZTz8ruaeN5siytvrj8fidN6pM+k9553KKuydCa8+fPylFdQir8PMXP+Dz7yqH1Osyvtp+JAK+vx1F9FxR06W5znxR/s612t42D9t/Ei66fJz6Us3XKp9FuJwFvDRts71Gg6/vO931z6Rw4TTZ1V4oY/o9vJ+vRMXEXKY1MhAyb74EO+avzMBwkTvzFUc0b9eXkmPL1yh9SDh7XY38shR3jUgts7ljR7mKHPDpXNpeHUF67ClCFOVf/bXJ2gvpiuLrXP5VP1GDpLAFx/mKi57f7prLwKR/fFBPcwPtT8wMojibS0N1FyLl1Mj0TFQEhVoGSthQZuV7P1DJEbFefWmhQTzRydV4Uyqci37fSFboIzhflsoJlCPTzZlDAXKhhogqcfE+cox3txRRIs3lgT2Z2/ydJg6fhR96Ipz6Ydf/CBddf6pVFGW3XbFeDRx7UVn0q1XnR98KFkIf3rsJdqwdWfG+gzHReY1G7ezwQ5s77/dfBm954LT0va4/Rw9UowEPnPNO7nxez9dMe8kquTvGQUUs9UTxZGU1kTcgDVqWBVdcs6JWdVj47Y6FbIr3xVuA9YfjrPxBMf98dEX5GJyGAg7+dhp9G83XUZDKsus5W28mmO/cvPldPrs6Z3OHOC03OMLl9NLK97sVM7OmSxQ+Yj3caf4bvIujgz6O4/J4Yf8lYbjGUX1e7erl8fggJWdqgLMAawYFvBD98ny56lpgACQryfvJVnNvXph88vaZ+xenOHwmzgdI/bQqCGwPhOjydQjZU2c8ftk8RP3eokeW15Guw8UKAvcvcwzoaiwgCZwsrz16vPpt9+8lT7xvgvpuOmT1AvGK8tlemBVWalcxEXcO844jn5920fo+kvOjmwIcMrgoeeW0sNMSBS27bJx3JR2/9OL6EDEaRcAIwQ0Qj/5t5vosrlzaPLYETRiSCVVcS8S24ntHV5VQeNHD6Nz58ygb3z0PfSL2z5Ml3IsyqZ70BmgZhMFtysdb+ORzEJOSrZ3/iKJvffC0+h9F54u2xfjZBEun5angTW+BzwK4bgovotHgb978FnasbcWlgDwqJITj5lCP/k/N9E5c46R46qgIB9NmlcepyyKCwpkxHrhabPo51/7kJQJP4sIeeS1NzZzR+NFHnG2eeUz8bSwxHeLZ0I4vp/zvEnzb5D0hQbCwKbH4vk0bOpsKhs+Tv5BsKqGQSReWHREia2DWhsO0L43X0V19PdvVdEJ0/1zS1U5tQglYVULf0wSBgslXi8OZZmJzcRD1txvh+pfl9gMN2XBLPUIN2UBfz0pbNxVSLf8ajRtwPUCbQMQ1Rs66Je3f4QmjRkOc9Yw7zPG1MGG5lbpJZSXFEtPF71q/HCjkEgk6dmla2QIj2cRAV3ZfiSOi885gW6+7Ny0j7cwwFu1kIjqGprk5qMCTh7lvI0jOPGjsUq3rTbgMQuf+t7dWW8vgJHSNe88g66/+Gzr+nDqCyOeZeu20Fs79vL21vGIokkSJ/aXrf7RvK/v/Nx1ss/DwGmpm795l9Yyb186Hfv4s9deRPNOmqEtKaCB+9yd99D2Pfuzrg8J/GNXXxB5zGHmEZ5rtGHrLtrDx1dzaxs3mnglapE0BLguhIvFOA7CQCfj+dfeoF/e/7RMTDDI9H0v59HgJ957odZSwLb8/N4n6eHnX8v6+wFR+sd5HRh52vCNn98rnQagu/Ub9JUeGBkgn0XpeK1kzabXqeUgegK2hsCU07qUU7KI+BN/GCYGCdWXVCUJg4ys4/yyKRMoa2yQTbzxa7sX54vxx3llsxk14JSRKZMC9s/3Hx4qN5pJmNh0VC/qUcAPccHi1WpKXgjo0aIXffSUcTSHf9wnHj1Fpo7i/Hem5PrUopX0878+yb17TB3uvD2ZdPS0H3p2KX3/noeptr5zbzsMJDOMDmZPnyjbOvvISXJfgjrlZd9W3ChVz42HDa0Yvvm2BzyTnmhP0l+feJnue2qRGlmEgMQ2i7fv2ovOos9ddxF969ar6D8/c42MaCRa1xOuPx1s8T3Ro2D84NnUt2TNJvrOr/5Oy7nhk5wQAp4thBvScPrshsvm0oevnE+3vHseXfOuM+nC02fL/87WECBx/+1fi+jHf3mcOyn1keuP0tPCEt8dPRN6Wn9f6+otjLzIhuP9wXvXLqHmOnUBTdWiGwKWpQmALirsIikO0dRngCQqMfDrJOtPyFLOJxufsQfK+mVNUWU9n+H+siHZi4MMn5YD8UE0NMfoew8Np0eXl7NXfWn53n3Ao9DS2k7fu/shuuOX99Mbm9+Wc9+2H282QAJE44Je1g/ueYRqDzZ22o6ucDRQLy5bS9/mbcMMI9yQ1hOg941TT+iR4lTG9V//Ga3nnqkNGF2EtycbjmT1u4eepbv/8SzV8KjKti/RyOKRHTgfjl5wPB8njhi+evw83f/DFt8THoVwXDZ88449clzd9/Qi6cHbOhwA9gcSP04FRTXcGDng//bdX/+dfvvgM3KchteXDU8LS3y3eCaE4/s5j1dNOf6bks/EqpFGx/0CLdwYICHGC7k3Ji/N14mfSQ5ncH1gG3t7azM171dTCd8/r4jGDEWFiFH+FNcJFmIg8Wousi8Je0nb7wc3ZWEy8cZn5Kiyfpupx2/zy0Fs2FVI//3PavrjwipqT+idhrAs96+gmzpMl3IPTGa0hIBTOH9fsJi27qqhZ19dTZve3i0/tML8fHkvgb+6KCDJbt6xl554aQXd/fBztHD5m7Lq7m6vB9Zh2r2vjl5avo4bmnq5EFyNRxhneI8ygGMM707Ywklp2dot9PTiVfJd//joi/Ta2s3SEF5w2iw5FRPG1p01cl9Ed7YfSW/1xu1ySuhgU7MkOuzL8AVQgwefXSKnt2z14cmfc2ZM4UNSzZzxE06LPfnKSh3MyHL7PPh0bOOMKWNl5k54PUjkC5aspga8QayL9bdw47hk9SZasX4r1dY18npw+q5YeCagc4FTlK9yecwwQwO+nhsED1ms369PGDWUpo0f1en7HWhopKVrNtOm7Xu6VF+UfvTkMTRqaFWn9YBe5OPYu57Szfo99JGeN2n+jSwab/Y8L8YtfFExFVeMoOIhwyleXC7XFQBEIVn6G4jWhjqq3bCEpTx64FvldLzchQy/ScjM/IlXZNjg0zEia+7ZIUL3l4XPcB3jyWE/OMoyk4WvnkB9piyYqVNhX32cVr1dRP9cVkYLVpXT7voYNwTq5qNM+zGXHJfncPHUdv4W550/9K1fsJSKxwwdXBMYyb3WE46eLPcP4KIxerIY3qP3ix729t37aS332Jeu2Sjy/voGasec2Yjt6CnHcBXPpqmuLKVjp02gIyeNplHDhlBZcaH8S1ra2uS0FO5i3rH3ACf0vbSz5gA1NbfI1E+MLNQDAVP1/udnPkDHHzUZxgCeXbKG/u9vHmApenuy4XheU1V5MSdZ3D09Sp7iifsOcCNaW6JdGqRf//1pqq3H6arO5XGhGxft8SrRsD+RSKgplZZyXeU4SiorSqiYtyvsx01luG6g3necvp50PB7ndZSV8r4ooRlTJ3j7o5Ibh5KiIq6/nRqbWmk3NwBbuHOxesM2eosb5QMHG6ipBZNUcGxlv74wL+XjBKcNw3bUW88NHY4TW7mucvk+8rDGzn40iDhObeX6K8+bOP8Gla2zL9Nj/sA3y/QjKdjgJVwkYWZiM4kGsuaeHSJ0HcPyvS/E6PY/xgkdmmzWf7hyvMv/F7fdkqYx+GXa8ocz/+8vf5COmjyWlSAwX/6Hf3g063ocd/xw5dwJ46V8+E/zXtexdiR2k/RFxhaB64u2xi42Q34bZK3n4c3CvvrD6xtEejrkov6BqtsuUgIH8MAzS7zTnT7odBkZ9DEe+EYJjwzw4zTJHTCyTvJ+bpI/YGJ8/jXbiJ5bGaM2dW5AbMqvZcM9Mkzr2mT0g80xum9ROe0+kPl8dX8C/0/pF1+/xfoceIwMbrnjV1obfLjn2x+jkfI2riAwbfH+pxdrzcFh8EJfM+hbPPCNIjoejUE4+Xsykj8z0TsnfyWbsswQ7/d7cagnbAvLoXrYt/NAjG6+azSt3hb98pb+CDQGd339Q5GNwYfv+LXWBhewXx78f5+XZyuF8Z1fP0AvLlunNQeHwYsYLhj0+R8SsO0uY498NsRIHGTj13aJwzxxLXs+Ewe/tutEH/QbGwj1wKd0XPwekH9m2200SP8qyjGrJW7dJ9v37PNFuj/3N3j/5JpB3/8h54aSNG+Mpwdk+I0NcVoPlDU6ZH9ZI4ObOL+s4wJlVSPl39qB9JcO/rjB9Dd+pP2ppZga+vbuWl+k+3N/g/dPJgGrdkHxPtElGTMhCftlHRVI4F7Chi8UHyhr4sBhM3Ytez7NvbKae/UoKAuWig8kPQpR8Ye7jqmpNmx5e69Mnw3HO93pg1GXWyKlXdC8b3RetUnUkpzRG9cJWhK1Js8G0qeDOpXVcqCsz+e3FXBSqDiLqHIuUfHUznE+8Gb6tje8/f1XD58G8ZMt/nDXcfPaCUdNsu6PlXjqZobyTnf6YNHlfQb801A/EOF9oEvi1QlaZDGmbKJDNnE6xi97ZWEzPnBt98tAxTlEE75LNOZLTF9k+T+IRt7CDj2rKQS9tWo1wgeGng4qrmf1DzQdN9FFPUQNj9DOVN7pTh8sutw5Ly2D+esTnYGtMAlcCDISt5bB/bKJ8RoEcGMPjxr8cWwrHM+J/yPMJ3LzV8ZUSpTPCWLoVURD3sUxskUBBLfX99fP9XSQiB7WP5D0gnic5p08g4ZWVeg9kALupN66a39O1yd/TvdrTh9AekzyJxYMWfaBnsD9AEjUgeQOL+yhU0ZiM3GQtR7wMffX45XVtoqziQpGsR5CrJh9Z/DgoFwbNFBcMS2LNCB0afEtZPzh+MNZP232dDr/lGPl8Rb+fYELx4tXb5QH7Pnjw+Wd7vTBpHvXDOTDFNAR4ddh8Ovd9O+rVzN21JbopB1O5jJlFDbIxueLkThLPR6HDT6Wi6YwjwBGCHnB+wkSyTxqapWtVtutFn22f3rkT4N+sX1+vZf8eF7+BafNpI9ffR4Nqej80L7augZ5JlFbW7u1fE/X7/xad/6gDoNf72d+PTLw5U7R+U/blc4ELgI+PfO/thGbYRK3dkD2grQsvpAMnycbv5ERBx3c+Ji32V+8LkjUcUzwkcl1TTHaURt8Oxmq8arFn7YrnQlcBHwOnd/fA+5MmcsrfWD6cc5zVHUV3XTZ2XTre+ZTRWkx2xGbIsweuu/pxbR2y85O5UFKt9fv/M6v9MPTr0cGTJornf8COlNA75n/scXc827BVphEbhK41r2t1j5PBgfpawSBMoaMzTdqOLCAqL2G5RA6WokOLuJwPBEyhSdWllFLO74FQ293Lr9/r/rTIBXfg/qF9y9/cUE+HTttHH3gHafT12+5jK44d448dTUMvCUNL0x5+PllOV0/uPP7decfiH5vZNCXfNOePPrLs8aok7iRJfn7bSCd2L1Eb7iR4UO8KePjoOZ1RHt+y+7Qu3ZrH2F6mGNQv8K++hjd/dwQVRyGgcYh8j6xkjhD8QOUV5WV0Gmzj6APX3Euff9zH6Cv3HgJXXX+yd7MofB3b2pppT8/jreTLab2BI6LYH2OOz7Yed6k827SKtqHvuOjOd/+6uNNNHNSglsltvMPVvkhm2TOzEv+xmc4YgCf3xbnR+E4ooozeRMKiBqWcldxjXYoNLbm0f/582h6aCkuKGf3PfoTx/0bP/7yB63PJsLsmY/9x+9Zyr6+/sJHD6uUVydOGFXNyX4ETRk7XF7TmQ3wbP7d++rpdw89T6+8vp4t2a/XcccHE48PmXL8N7MLzS1valYjhBOmJGhouen5Mwskd5PwjWzsfq7tEAMNhwWJel7xKs76KzlL7NVGBTQEdz01lP72cgW1JZBYVS0DiQMXnXWc9U1n9Q3N6vQIy9nW1x84rgOcf+qx9NF3z6OZ08bTuBHV8irJbLBt9z567KWV9JsHn5XXaWazPscdH6wcLyOV80WduYgWe278SaZX1uXTR35eSkvXsyJJHNcCTHI3yR8J3sjGDpvxweaTJa5raGnLozvuG0m/XjCEmtrjejvTb39/9aMnHD5FYigYby+f4v3Dj/8m3obV0Nxi/U5hwtu6tu/ZT7+8fwHdftf9dO9Ti+V9zVH1d7Y7v+LOb7cfvv74kKk8MuBfHHT88ODoKx23G+xvyKOHlhRSPJakcUOTVFqU5BYKCR/gAK9xQGlNRva4juki8N6Cl9eX0Cd+P5qeWV1GrRgRpNnegaAveHWNvNcXr1vERdSC/Li8UlFGBi8sz/n6+kJvbUvQ2SccKbOD/EDyxwvt8f7hfQcO0pI3ttDvH3qe6QVau3kHNyCtHJPs8vqc7vTBqIeuGRj0vR6P5dHMiW103qwWmjujmY4d10b5cX9v38hQTfJn8vzZAeE7avPppXVltGBNKT3HVM+NQq6/z6HW8U5enGOfMXUcHTlxFJWXFNMdv/mH58/1+npTxwF765XzaPLYEdTc2kbNLa1Ue7CJausbqab2IG3bXcO0X95viwYi1+t3utMHgy4vtzEu4SzA4Olh3sv+gngHVZd30JQR7XTJnAaazw3DuKFtXA5eJtlaI6NRyA61jXF6ZX0xPb6inF7dWEJ76+LU0CozawPrP9TfP9d+nHPHi+9LigppX11Dv9u+bP3lJUWUz6Mc9PTbEx3UziMCjArk9JAvrr9uv/M7f3/365FBGMYdhb7zx7kRmD66jU45oplOmNxMx4xt5sSWpMIYer9JwqttMYumowNP7CS5+NuWIGriRL9lbwGteKuYFm8spWVbiqm5zayz77bfDud3fuePhvMfCj83BjcOqK5VPEY0tKxdZiCVFnVQcSE3CtwwtCfzKMGNQF1znA40xGg/jwSaW7lQp3pY6Mffz/md3/md/1D4I0YGDg4ODg6DCdzPVlPyHHfccccdH7zcjQwcHBwcHDAyAEx74Ljjjjvu+GDk/WtkIMOVXgYuoDg4ODg4BGAfGXhJOYJ3xw8b7gsAT2J+eJJV5knwdiV3+O0gbRcOahOeTLRREpx1w/3+DvYHypt6waEnYNfr0XZepLbPtv1+7vyKO7+dO7/izm/n/dSf+5GBb0UipRYK4k/nE0Etfa5AXFZIjQDUYMA3IvCPDlhWmral8wF+v4ODg8Nhgp41Br5sLeldVG0LJH1tA6QnrmUpYxRc1Vbcg7+cxHpSJ3gpurPgS+D6oUzGZ7MbG3Ml+Wwiy0fJwozPwcHBYeAilhdKZlnpSNJMOtWzaE6vqGcGySkYJH3mkvzNKZlEu8R5p3BEZx/zJJ62Cd2cxmlvY1HFyGkh0X2ngTSR5hIjMse36zIob+ozZHSzPWbbNPGCP7zdoge/D3zYG5iKJSTfX+0Lg27tTx+c7nQ/nO50P3pT79rIwEt6SIaKC0xiNH7oIqdsAR1+MSLZglvKiy5KisvS6CHwdzJ9ea34OLM8fXmEDbIDzE5gLuX8usjGZnSIRgcz9THYIHUYmHgHBweHAQJfRssAk6iRjn3JOZDIhdCLhk/pqhetetXGJzp63pBNr1tz1UPXuu6texd+OxF6+KaXH/alyKvL2wafbtYrPv82278PuGI6HmCOPwcHB4eBiuwbA41AyjPJMFtIeLiMrY5QctXrEZuIWPj8WldJG/D5QmGRSTvCbJDdV80qyMHBwaHfwbtmEObmVEfYHjOnR6AzwQ6PnIYRXV6exrLSYzHEsx1c+8XHupSNxT2/lJU4cLxxTHGJ1XoszhxyLF94zPA4uC4fimdF+WR71PrU+nW8bIfmbINfdEiay/cQP763OFI64gMcouJGD3Pnd37FnN/Gnb/v/V2fTeTrfStR66L4bF3RtSxgGX9K1TZAFVS+CPDX0RLDfGkAX9T4xM4kNq3rWLVjjM5+Mad09RFjGpuDg4PDwENqNpHmGXXdQ+Yut/ikp6119Jal544eN3rkbPN68tJzNz14o+dTLJ855PwC5WceizNB9zj8hcLjzJVfcb8Ov+Jcxiuv/EpnP2TUpym1PWw322e2Pw92Jq2rkQS+l+LB769HEpCVoJnTtaCZ07WgmdO1oJnTtaBZ3+m5u+lM99y9vntqEfT57YAYjB0I+wyUHDCFYL4XS5preA6zA1JywCefsJ3BstIsPgcHB4fDAHmTz79Z8ivSW84512x0swRDc2GPS0XiLZeen/8C8eBcxtN1sg74hWs7L8ABWMTPZYLxrHtxofoi63fccccdPzx47h9H0RVYu/nKZt2obLYU3yqElMnmtNgcHBwcBhnUyICTLHIici1So+RonSON7vzO7/zO7/yHr59HBjez6IU57rjjjjs+CHnvXjNw3HHHHXd8QHA3MnDccccdd9yNDBx33HHHHSeKQYDmuOOOO+744OUyMoDu4ODg4DB4kTcJjYE0C0weN4Jmzu/8zu/8zn9Y+2Ni4kWQ58m80852w53f+W12w53f+W12w52/P/qD1wyU6HSnO100pztdLQaDnjf5/A8ZUbscd9xxxx0fbDzimkEWHIt0fscdd9xxxwcIJ/r/sptCxugqSjQAAAAASUVORK5CYII=;" vertex="1" parent="1">
          <mxGeometry x="99.75" y="270" width="107.5" height="40" as="geometry" />
        </mxCell>
        <mxCell id="Hievig5KLjoYhDcm_fqx-7" value="" style="sketch=0;outlineConnect=0;fontColor=#232F3E;gradientColor=none;fillColor=#01A88D;strokeColor=none;dashed=0;verticalLabelPosition=bottom;verticalAlign=top;align=center;html=1;fontSize=12;fontStyle=0;aspect=fixed;pointerEvents=1;shape=mxgraph.aws4.sagemaker_train;" vertex="1" parent="1">
          <mxGeometry x="207.25" y="106.5" width="78" height="65" as="geometry" />
        </mxCell>
        <mxCell id="Hievig5KLjoYhDcm_fqx-8" value="&lt;div&gt;&lt;br&gt;&lt;/div&gt;&lt;div&gt;&lt;br&gt;&lt;/div&gt;&lt;div&gt;&lt;br&gt;&lt;/div&gt;&lt;div&gt;&lt;br&gt;&lt;/div&gt;&lt;div&gt;&lt;br&gt;&lt;/div&gt;train" style="html=1;shadow=0;dashed=0;align=center;verticalAlign=middle;shape=mxgraph.arrows2.uTurnArrow;dy=11;arrowHead=35;dx2=25;" vertex="1" parent="1">
          <mxGeometry x="270" y="120" width="70" height="50" as="geometry" />
        </mxCell>
        <mxCell id="Hievig5KLjoYhDcm_fqx-9" value="Automate" style="outlineConnect=0;dashed=0;verticalLabelPosition=bottom;verticalAlign=top;align=center;html=1;shape=mxgraph.aws3.automation;fillColor=#759C3E;gradientColor=none;" vertex="1" parent="1">
          <mxGeometry x="540" y="121.5" width="40" height="50" as="geometry" />
        </mxCell>
        <mxCell id="Hievig5KLjoYhDcm_fqx-10" value="Monitoring" style="sketch=0;outlineConnect=0;fontColor=#232F3E;gradientColor=none;strokeColor=#232F3E;fillColor=#ffffff;dashed=0;verticalLabelPosition=bottom;verticalAlign=top;align=center;html=1;fontSize=12;fontStyle=0;aspect=fixed;shape=mxgraph.aws4.resourceIcon;resIcon=mxgraph.aws4.monitoring;" vertex="1" parent="1">
          <mxGeometry x="630" y="116.5" width="60" height="60" as="geometry" />
        </mxCell>
        <mxCell id="Hievig5KLjoYhDcm_fqx-11" value="" style="shape=image;verticalLabelPosition=bottom;labelBackgroundColor=default;verticalAlign=top;aspect=fixed;imageAspect=0;image=data:image/png,iVBORw0KGgoAAAANSUhEUgAAApIAAAHeCAYAAAAo+uvsAAAAAXNSR0IArs4c6QAAAARnQU1BAACxjwv8YQUAAAAJcEhZcwAAFiUAABYlAUlSJPAAAABhaVRYdFNuaXBNZXRhZGF0YQAAAAAAeyJjbGlwUG9pbnRzIjpbeyJ4IjowLCJ5IjowfSx7IngiOjY1OCwieSI6MH0seyJ4Ijo2NTgsInkiOjQ3OH0seyJ4IjowLCJ5Ijo0Nzh9XX0WbtzrAACTb0lEQVR4Xu2dB5gVRdaGC7MiKoiAIAgIAmJAxYwRUde8ijnrijkHzGJOiDnrmnMOa9bfgCKggigGRJEcJSoghv19yy63vd6ZuTO3u26H732edm7XyNw+XXWqTp06daref3/HlMC8efPM/Pnzg7v4WXzxxc1SSy0V3MXPzz//bH744YfgLn4WWWQRs/TSS5t69eoFJfHy22+/mTlz5tifPkAu5ENOX1B/1KMvaJ+0U19IB6tm9uzZZtSoUearr74yI0aMMCNHjrT3kyZNMgsWLDC//vqrbftcdHnus7uPG/RhoYUW+vMK3y+88MJmscUWM82aNTNt2rQx7dq1M6uuuqrp0KGDvV9mmWWCv1I7pIPRIx2MFo2D0VMJHZQhGSAFihYNYtGTVx2ki3IX7XfWrFnm008/NcOGDbPXJ598YsaMGWN++eWX4F9kB/SnVatWZq211jJrrrmmvdZYYw2z7LLL/mmQuqsQ6WD0aByMFo2D0VMJHZQhGSAFihYNYtGTFx2kjeJFRN6ffvrJTJw40QwZMsR8/PHH9vrmm2+81nPSWHTRRa3Hcp111rEGZpcuXUzz5s1tfS255JLWu+mMTOlgtGgcjBaNg9FTCR2UIRkgBYoWDWLRk2UdRK4pU6aYCRMm2OXozz77zHz44Yd/eht9tds0gtHovJZdu3Y1q6++ul0mb9iwoWnRooXVQ19IB6NF42C0aByMHtqnDMkAKVC0yJCMnizpIN3OzJkzzfjx463HkZjGDz74wAwePNjGNvqUM2ssscQSNrZy7bXXNhtvvLH1Xq644orWqFxuueVi7XOkg9GicTBaNA5GD+1ThmSAFChaZEhGT9p1kLY3bdo0uzSN4Th8+HC7VI33EWNSxANGJF5KlsL5ucoqq9ircePG1psZJdLBaNE4GC0aB6OH9ilDMkAKFC0yJKMnjTpIe5sxY4Y1GocOHWqNRq4vvvjCbpopsfsREYBOstzNbnAMSi7iKzt37mzLozAqpYPRonEwWjQORg/tU4ZkgBQoWmRIRk+adJAd1GyQ6d+/v/U6fvnll+bbb7+1RqWMx8rjjMq2bduajh07Wm9lt27d7HJ4OTorHYwWjYPRonEwemifMiQDpEDRIkMyetKgg99995154403zCuvvGKXr8eNG2emT59u8ziKZEIey0aNGpmVVlrJ5rDcdtttTffu3U3r1q2D/6N0pIPRonEwWjQORg/tU4ZkgBQoWmRIRk9SdZAUPWyUefjhh82AAQPsruvvv/9exmMKwahcfvnlbVzlJptsYvbcc0+z4YYbltzOpYPRonEwWjQORg/tU4ZkgBQoWmRIRk/SdBBP4/PPP2/uu+8+m6aH9sX7L7FLEQkG/SUfJTpMWqEDDzzQ7LTTTtZzWR3SwWjROBgtGgejh/YZ7ZY9IUTmYYd1nz597AkrBx98sHnzzTetB5Ik4jIiswH1iKeZeqV+qWfiJy+66CLrcRZCCIcMSSFEtbBEzVnWH330kTniiCPs5owLLrjAJg8X+YHE8Oedd57d9X3MMcfY9kC7yOLRlEKI0pEhKYQoCh5GEoa//PLL5qijjjKbbrqpuf32263xIPIL9X/zzTfb9kC7oH3QTmgvQoj8oRjJAMWGRItiJKPHlw46A3LYsGHmueeeM6+//rptO0IUo0GDBmbrrbc2PXv2tOEOTZo0sfGVPlCMZLRoHIyWvIyDiTMkefE8klMgPrtGFv4cNT4UiOcn6S8/nQI5nNxxyedDgdzzOxmcAoXlilPGOBWIZ+bZw5/dIOZLvrh1kCVs0vcMHDjQpu8hByR5H4UoBTbikIuyR48edqc36YPYBR4VedBBh5NP42C0aBwsD56ZZw9/TowhGX6p7uGKKVCcxKlA7hUjh5OvmALFSdwK5OopLEcxBYqTOBUoLAM/uS82iMVJnDpI/Ntbb71lvY+k8uEoQyHqAkcvYkjipdxyyy1Ny5Ytg9+UR9Z1sJh8GgejReNgeYRl4Cf3iTEkw7jHWWKJJewDQvgR46qIOBUojJOFhsWSkJPHlcclX9wKBK5hcfEZ+ZAT4pYP4lQgCMsH9evXtx09uDKIS8Y4dHDKlCnmP//5j00iPnjwYDN16tTgN0KUxworrGDWW289a1DuuOOO1sAslyzqYDGcLBoHo0XjYPmE5QN0MBGGpHupPAoVjNubzmHJJZf8y+8grgqIW4EKX/6iiy5qK8Cdbxu3fHErkHtu9/eRC/lQICc7xCUfxKlA7rldHXJPB08sWPh3EJeMUeogbYG0Lk899ZQZNGiQmTx5cvAbIaKladOmpmvXrjaGcquttrIDa13Img4WEpZB42A88mkcLA/33K4Oubceyd8F/kOyGkB5yCsWNzwccTU0MDoI18Dihhc/d+7c4C4+kA+ZaFh0EnyOs1E5aNg//vhjbArkcI2LOkQ+p0A+oP7iUiCHk496o33STn210Sh0kPczdOhQc9ddd5n333/f5gSM+50JQT/AaTkbb7yxOeyww0yXLl2s7tSFtOtgKWgcjAeNg9FQqIP1Zs+eXZIhyYuoq+LXFh6SwH/yk/HZB1Q4L8QHyERDRj5+ukqJE/4+DdpHY0YeLuSjHn3IB9Qf9eiDsHzUoQ/5ytVBdmKTtuXRRx+1BqSPAVGIMPRBzZs3N3vttZc58sgjTYsWLYLf1J406mBtQD6Ng9HC39c4GB1OvnrTp08vqYUSq4GL3Qc8HClIWEbw1UHQOYSDfuPEvXxmDjQwiFtGZg4sKfmY2SIfFzM/1wn6qEPqz2cnT/vEGPMlX111EF168cUXbTLp4cOHW50SopLQD3Xu3Nkmtt9hhx3qZLykSQfrAjJpHIwWjYPRgky0Tz/+8hpwL5wL3MsOD3iU+aiEOCgmH1dW5INi8hUrSytOlrA84XtImowMQqNGjbLnJO+xxx7m008/lREpEgHtkPa455572vZJO6W9VkcadbA2FJMPNA6mh2LyFStLK06WsDx8ToQh6V6ueygH927mQHlaB8Hq5AuXp3mQD8vhZHRl1KErd79LG04WJ2O4LGltlNkvxxeyjL3++uvbpWzKhEgatEvaJ+2U9kq7raqtpkkH60Ix+SAP8oXLNQ4mFyeLk9GVJcKQLPWl8sBZw8nEO8iifIWkVca0tNHp06fb3djEn5122mnKBylSAe2U9kq7JRUV7biQrI8TGgc1DiadqtpoIgzJUsliAyu180g6Tg7qqLCe+F1W5KyJSrVRdukR/3jjjTfa84/JDSkvpEgTtFfaLe33+uuvt+25LrtPszhOhNE4mFzyOg4mwpAMv/BiL9+RhUqoqhOoqjwt1PT8WZKvUJZKt9FZs2aZF154wZx11lmmb9++5ttvv0318pDIL7Rb4iX79etnzjzzTPP888/b9g1J1sEoyLp8YQrlc1RVnhZqev4syRf+nCqPpBDifzDoYjRec8015pxzzrE7s0m2K0TaoR3TnmnXtO/Ro0dnwoASIovIkBQihTCo9u/f35x88snmhhtuMJ9//rmWskWmICXMF198Ydv38ccfb959910Zk0IkEBmSQqQMDMbrrrvO9OrVy3ptim1MECIr0L5p50cffbSNndSESYhkIUNSiBTBmdiHHHKITeT81Vdf6XhDkQswHvG69+nTx+ad1NnwQiQHGZJCpITBgwebnXfe2TzyyCNm5syZQakQ+YBlbdr9448/bvVg4MCBwW+EEJVEhqQQCYbBkxM/HnzwQbPvvvuaQYMGaWlP5BraP3rAaU3333//n0ckCiEqgwxJIRIKmw0mTpxorrzySnP++eeb8ePHB78RQowdO9bu6r766qutnrjzmoUQfpEhKUQCcQnGL730Unt0nDbUCPF3OBGHJPwXX3yx+eyzzxQzLEQFkCEpRMJgqY7UPhdeeKGNh5w/f37wGyFEIejHY489Zi666CKbIgj9EUL4Q4akEAmCQfDJJ5+0gyJnZuuEGiFqBj1BX9Cbp556SsakEB6RISlEQuA0j1tuucVcdtllZujQoUGpEKJUPvnkE3P55ZdbPdIpT0L4QYakEAlg6tSp1ptCwmVtqhGi7rAJBz1Cn9ArIUS8yJAUosJwXja7Tx966CHlhxQiAtAj9Am9Qr+EEPEhQ1KICsJZwmeffbZ57rnnzNy5c4NSIUS5oE/oFfqFngkh4kGGpBAV4qOPPjJnnXWW3SSgzQFCRA96hX6hZ+ibECJ6ZEgK4RlO4eBkDjwlb7/9tnLfCREj6Bd6hr6hdzoFR4hokSEphEc43u29996zsVsMakIIP6Bv6B36p2NGhYgOGZJCeALPyPvvv28uueQS8+GHHwalQghfoHfo3wcffKCVACEiQoakEB7gHGCMSFKSDBw4MCgVQvgG/bvgggusPup8biHKR4akEB5wRx4q4F+IyoMeoo/opRCiPGRIChEzBPr36dPHDBkyJCgRQlQa9BG9RD+FEHWn3oIFC0rawkZwss9lgIUXXtgsssgiwV38cFarz5iZhRZayMpXr169oCRe2KmIfL52LCIX8iGnL5DP59nUyEc7rY5XXnnFDlbyRAqRTNZdd12ro9tuu21QUjUaB6NF42D0VGIcrPf7Cy3pjc6bN8/Mnz8/uIufxRdf3Cy11FLBXfzw8n/44YfgLn54+UsvvbQ3BaJhcfasrwaGXMjnsxOk/nx2grRP2mlVvPbaa3aXKAH+PhVbCFE6DPJdu3Y1F198senRo0dQWhyNg9GicTB6KjEOamlbiBgYMGCA3Vjz8ccfy4gUIsGgn+gp+spubiFE7ZAhKUTEDB8+/M8UI8pXJ0TyQU/RV/RWxykKUTtkSAoRIaNHj7aejZdeesnr8oIQojzQ1xdffNGmBkKPhRClIUNSiAgg1HjixInmmmuuMU8//bSWs4VIIegt+oseo8++NmUIkWZkSAoRATNmzDB33nmnvRYsWBCUCiHSBvrrdBm9FkJUjwxJIcpk7ty55vHHHzc33nij+fHHH4NSIURaQY/RZ/Qa/RZCVI0MSSHKgJxy5Iq87LLLzJQpU4JSIUTaQZ/Ra/RbRykKUTUyJIUog0GDBik4X4iMgl6j3+i5EKI4MiSFqCPffvutOfPMM80nn3wSlAghsgb6jZ5/8803QYkQIowMSSHqwKxZs8z5559v3n333aBECJFV0POzzz7bzJ49OygRQjhkSApRS4iX6tevn805pzQ/QmQf9Pz55583V1xxheIlhShAhqQQteShhx4yjz76qHZoC5Ej2L2N7nMJIf6HDEkhagHHqN16663aoS1EDpk8ebK57bbbzODBg4MSIYQMSSFKZPz48eaGG24wX331VVAihMgbX375pbn22mttfyCEkCEpREmwueauu+6yQfdpi4tcZJFFTP369c0yyyxjll12Wftz6aWXNksssYRZeOGFg/9LiPhYaKGFzOKLL27bIW2wYcOG9qItLrXUUqlqh+g//QD9Af2CEHmn3n9LPEx03rx5Zv78+cFd/NDp0MH4ggP7f/jhh+AufhjcGczr1asXlMQLnd+cOXO8GUHIhXzI6Qvqj3qMmp9++sk8++yzNtB+1KhRQWk6WGyxxcy2225r2rRpY+tj0UUXNb/88ouViUFw0qRJZvr06fbdcc9FO+H/EaIuoPtLLrmkNRjdxGW55ZYzTZo0MSussIK9ZxLD/0e74xhCvPxvvPFGqs62Rqd69+5tdtllFztexYHGwWjROBg9tE8ZkgFSoGjJigLxvsgj16dPn1Sm+unSpYt56aWXqh3oMB4nTJhg8+RxjRw50owdO9ZMnDjRlrPJIE0DvPAPer788sublVZayTRv3twaWe3btzdt27Y1rVu3tkZkdV5HjMmNN97YxiCmiW7dutm+AT3D6xo1GgejReNg9MiQDCEFipasKBAD21VXXWXuv/9+r8oZFXhRDz/88OCuNPBWjhkzxiZc//rrr81nn31mLz6n8R2IeEDHMR47d+5s1lhjDbP66qubVVZZxRqOLFvX1rA65ZRTzN133x3cpQM8/AceeKA59dRTTdOmTYPS6NA4GC0aB6NHhmQIKVC0ZEGBaO+PPPKIufjii+3yb9pgWXHAgAGmWbNmQUntQAcZKNlUwAYDjMn33nvPDBw40HorRT7BQFxzzTXNRhttZDbccEOz2mqrmXbt2tnl63J0kLa622672YlMmmjcuLE566yzzN57722X7KNE42C0aByMHhmSIaRA0ZJ2BUItPv30U3PEEUekdpf2DjvsYO677746t7FCHeTdEiM6YsQI079/f/Pyyy/bd+SrTYnK0qBBA7PpppuaHXfc0ay11lp22RovXLh9laODLG/37NnTDBkyJChJDx06dLBpgfDMRtmnaxyMFo2D0UP71K5tIYqAV+Saa66xy7lpZdddd420g8Y7ueqqq5rtt9/enH766XYZ8rrrrrOxbQx4IpsQ37j//vvb8I7rr7/eHHroobbO8XRH2b4YkLp37x7cpQv6CfqLtHlThYiCRBiS4c6osGMKO0xLdJ4mDicTz19MPidXWuUD5HLPX1UdhmVNOpxcg8ctrd42YtfYCFAq4Tqrqv6AzyxtNmrUyG4wOOyww+y7uueee8xmm21md4mLbMBSNUbjE088YfMm4uEmBjKuSQMTlc033zyVKanoJ+gv0IW6UhsdTCNOJp6/mHxOrrTKB8jlnr+qOgzLmjbCMoU/J8KQLPWlFlZMWqiqYRWSVvkAGXn+6mSo6fdJgY0m7MRMs3dh3XXXtUsqpVIXHeQzaV7YqbvHHnvY3eEPPvigjZ8T6QWDbq+99jKvvfaaufnmm80mm2xiJyZxL88xQaEtsWknjdBf0G/Qf9QFjYN/kFb5IEvjYDGqaqOJW9oufNA0N6pi5EE+d6UR8ieefPLJqU80vMUWW1iDoC7UpY3iRWJp0sW4YVCymxcPZdbaeBbBiGOjCF7H999/324y69q1q/U+1nb3dTkQh7nOOusEd+mDfuOEE04oOw9rHsaJMBoH00dYtsQsbbuGxBJBsZef5kpx8nEVk6Oq8jRRKB+fHeHyJMtI22Npip3JaQYDEo9kbQxJV39Qrg5ieOy77752d3ffvn2th8lnQL0oHSYApOohLOG5554zzz//vDUgKwUn32BI+jReo4bz+OlHahsWE6UOJhEnH1cxOaoqTxOF8vHZES5Pq4xOPgi30cQsbbsH4iFdJxJWxLAAacPJ9+dL/10+ZAlXRJrlg7B8yIGMhWVJl5FE3DfeeKNZsGBBUJJOiGPjBJHavOti9Qfl6CBGwTHHHGNj7I499ljroWQpXCQDYiDZNHPppZeap556yvTo0aPi+okHlN3gGLdphf6DfoT+pDbEoYNJwsnnZNQ4mD4KZWEiyn29H3/88Y/SGnAvxRc8XFiB4qYS8oUrxQc+g9jD8nH5UBzXMdUFUkKce+65Nl0OJ7mkmX322cdceeWV1pgsB+otKh0kddjgwYPNww8/bN566y0zbtw48+uvvwa/rQzE/GG4sKTLhQeXpXgudIV7LtqVu2hfro25ts074mI5E5lIvcFnDAp3ET9HCjU+V1puZOXUGXbf01aYeETV95Wjg47PP//cTjxYYk8rhHmQqPyiiy6yy/V1JUodLAXqLqq2UApOh7h8oXEwOv6Ua/r06SXVIJ2PL28CD0aHS8eLEvl4KQwYtdmcUA7Ix0CDfAwqPhoYjYsOzUcngTzUG/IxqPqQD6i/2iznhsEjw+kUaTtLuxiXXHKJOe6448oewOLQwe+//96eqcwS6ttvvx1rzjoGDM51JjE7Hi48cNzTTng3/KRfw3PKxeDPRT9HO+J3GJoYnFzojruA9+KusOGI0Ui7/32SbiclvEPkZLLC/zd79mx7cc/PmTNn2ouk93EeR0kdkrJnm222samh1l9//cj79HJ00MGxnOedd5656667gpJ0wjGRhHaQZL0uxKWD1aFxMDqQh3pL0zhYW5APJ0EiDElesMO9aDpjOmJ+R6W78vD/GyVxKlAx+VAglxiVMtew45IvbgVyzx2uJzdwQvh745Kxrgr03Xff2ePZMG58JnKNA4wn4rN22WWXWu2yLdZG49JB/j3Lfq+88oo14IcOHRr8pu7Qtsl3uPLKK9ufJMrm4tQRZ0TyE6MSY5KL91MJHaTjxXDku9mcQSJuLozsadOm2YvThDieE6OKU4Soi3KgXbABi81QW221Vdne6qqIYhCjzZGvktNi0gzvYaeddjJXX321PTayJnzqYFVoHCwP99zhekrLOFgKxeqQ9pk4jyQPygOiQD6XGONUoDBOPhoWXoq4GlMhcSuQw8nHT+RzCuSDuigQhuOtt95qvXgM3GkHjxMxiaRsqSu+dJC/zw5vjEmeGeOqFFh6btGihT2Wj4ulWdLGkNsSAwlj0RmMxYzpJOsg74SBB++k81JOnTrVGpacfY4BzklLtNVSl8h5NyyzspTNCSxxLu1FMYhhVDzwwAP2VCmfp6nFAZOZs88+2xx55JG1ei++dLAQjYPR4OTjZxrGwbrgZKR9Jt6QdJURN5VSIFcWNz4VyOEUyFcd1kWBPvroI9O7d2/zf//3f3YASzvrrbeeufPOO8vK5ejaqC8dnDJlinnnnXfMv//9bzNo0KC/1QOGDyfqIBNJ0NkFjtfRGYxc9E88Zyk4+dKig7wPlsfwXjoPJjGmw4cPN5988ok1xjE0Cw1LdIF0PgcffLDdCe2jf4tqECMn6VFHHWVGjx4dlKQT6nrLLbc0V1xxhc2kUCq+ddChcTAawrKkYRysC64OE2NIugcKfy6mQHFWRJwKVPj8/CxUIFceF3ErkHt+JyuEFcgtXRT+P1FSWwXi+Tjij12rtLUsQOwbS2nsfK0N4fbnPvvUQb4Lo4H8hWx4wuu4wQYbWM8qO4tXXHHFv8Qy1rYdFz4/P9Osgzw7dcOyEh5MwjNIW8XF5IjvIZ8hXkiMbozxJOpgVSAHz48saYf2yjI98lQ3xoTbn/uscTBaNA6WR7h+3GfbPpPmkXQ4BfJFnApUDKdAcTWmQuJWoEKQyymQL2qrQP379zdHH320+fTTT4OS9NOrVy97ugaGV7n41kG3oYVYQQxJV598dp1XlGRJBxmg2JhBqAYeS94Xy/yU+dwlHtUghk6edtppNo42C+BNv+mmm2p1bCloHIwWjYPRQ/v08zaFSBjEn7366quZMiLBee7SCMYPz96qVSsb60mHyK7pOIzIrMHAyGSfQZL317Jly1S/O+o+zbkkCxk2bJjtb0qNAxYiTciQFLmDWSK56h566KGgJDtgSPicjQoRB0wo2GmfJe6//34b1+rL+yaEL2RIityBV4DE2N98801Qkg3wPuHFwRMlRJohjIpJUZYgjpUYYHklRdaQISlyBbFkeAUwJLMGnkiWN33F/wgRF7TjtIZoVAf9Dv0P/ZAQWUEjjsgVbD4gPQ4bOrIGnkgta4sswMarLE6K6Hfof+iHhMgKMiRFrvj444/Ns88+G9xlC3Y31+Y0GyGSCmEaWW3P9D/0Q0JkBRmSIjcQ5E6OxazGKJErUMvaIivQlrPYnul/6Ie06UZkBY06IjeQ5DgreemEEOmFfoj+SIgsIENS5IYbb7zRngSSVfBwyMshsgIbUrK6KYV+6Nprrw3uhEg3MiRFLuCotZdffjm4yyacMMBJGEJkAXdST1Z5/fXXM3EEpBAyJEUuwBvJUVVZRh5JkRUwIufNm5fp9kx/RL8kRNqRISkyD8cgvvHGG17PHK4EeCSzPviKfDB//vxMh6EA/dGbb75pT9kSIs3IkBSZhhirRx991MyYMSMoyTbIqeVtkXbwSDIxyjrTp0+3R7UqQblIMzIkRaYZM2aMee211zLv3XBgSOLNESLNoK+zZs0K7rILctI/0U8JkVZkSIpM88ILL9gzbvOy3DtlyhS7vC1EmpkzZ04mT58qhH6J/ol+Soi0IkNSZJbJkyebt99+2y4f5YUJEybkxvsqsgveyKlTpwZ32Yb+6a233jKTJk0KSoRIFzIkRWZ5//33zbBhw8wvv/wSlGSfcePGZX53usg+hGjkxbCif6Kfor8SIo3IkBSZBK8cJ0eMHj06KMkHGJIsCwqRVjCsWE0gTCMvjB071nzwwQdaTRCpRIakyCSk1Bg8eHDudjDjySFwP8uJnEW2wZgibjBPbZgNcgMHDlQqIJFKZEiKzEEAO0tF5I/MG+SmYzDKQ+oUkU2YDH311VfBXX6gv6LfUh5YkTZkSIrMMXHiRDNgwAA7IOWRQYMGaXlbpBZ2a3/22WfBXX6gv6Lfov8SIk3Umzt3rqY/IlP079/fnHTSSWb48OFBSb5o1KiRzU3XqVOnoESIdEBi7pdeesnsvffemT+JqhidO3c211xzjenWrVtQIkTyqfffEv3o5Kbzmeh48cUXN0sttVRwFz/E4/jc7brIIouYpZde2tSrVy8oiRc6aLxUvk5QQC7kQ05fUH9c9913nznzzDNzfVrErbfeanbbbbey3r90MFryooPlxDbOnj3bXHfdddaYyiMLLbSQueyyy8yBBx5o9U86GC3SweihfWppW2QKdnuSRiPPRiS88sor9pg5IdLEzJkzbbaFvEK/Rf9FPyZEWpAhKTIDzvXx48fbGMG8w/J+ntKniPSDETVq1CjzySefBCX5hP6LfkybbkRakCEpMgPhF0OHDtVs/ndY3sjLySAiG2BIcjJT3lcT6L/ox3RmvkgLMiRFZiD25f/+7/9yPxARj7Pvvvua1q1bByVCJJ+FF17YrL322qZHjx42VjCv0H/RjynzgkgLMiRFJmAZiCPVPvzww6AknzAA77zzzubII480jRs3DkqFSD5sTGjXrp059thjzcYbbxyU5hP6MfozLW+LNCBDUmQCjlUjSH3WrFlBST7ZcMMNrRGJN9LXTkghogJvOl7JXr16mQ4dOgSl+YN+jJyS9GtCJB0ZkiIT0OG++uqruZ7Bt23b1hqRa621ll0mFCKNkPKme/fuNgXO8ssvH5TmC/oxcsHKkBRpQIakyAScCvHuu+8Gd/mjfv36duAlvmzRRRcNSoVIJ0suuaRNSk6YBoZlHiENEumQhEg6MiRFJnjzzTfNTz/9FNzlC5YDd9ppJ7PPPvvkdtAV2aNhw4bm8MMPN127ds1lmAb92dtvvx3cCZFcZEiKTPDEE08En/IFm2vWWGMNs99++5kVVlghKBUiG3Ts2NEceuihpmXLlrk0Jp9++ungkxDJRYakSD3kTMzrzJ0Ysj333DP3u1xFdtlhhx3Mdtttl0tvO+E6Po8sFKIuyJAUqYfd2nmMJVpsscXMJptsYs/U1g5tkVVo50cccYRZffXVc9fO2b1N/yZEkpEhKVIP50rnkRYtWtgYMi1pi6zTpk0bm1+STWV5I6/9m0gPMiRFqiE9xuuvvx7c5QfS+/Ts2dOst956QYkQ2Wbbbbc122+/fXCXH+jflAZIJBkZkiLVjBo1yl55g00IBx98sN2xLUQeIEbylFNOyZ0HPq99nEgPMiRFquH0hwULFgR3+eG4444zK664YnAnRD7gCEV2cecJ+jf6OSGSigxJkWr69+9vfv311+AuH3CEHHkjhcgbbLYh8T4GZV6gf6OfEyKpyJAUqYW4oUGDBuXOkDzxxBPtyR9C5JHGjRubww47LLjLPvRv9HOKkxRJRYakSC0jR44006dPz9X52htssIHZaqutgjsh8gdHgG6zzTamdevWQUm2oX+jn6O/EyKJyJAUqWXIkCFm3rx5wV32Yac28WE6BlHkHbySe+21lz3ZKQ/Qz33yySfBnRDJQoakSC3Dhg3LlSHZqVMn65HUTm2Rd5Zeemmz5ZZbmlatWgUl2YZ+bujQocGdEMkiEYZk+LSCwpMLwsuWaV3CdDLx/MXkc3KlVT6He/6q6jAsa7kQL/T555+b+fPnByXZBm/k7rvvbho1ahSURIt08H9tNM245/ehg74Jy4QnEiOSMI9CWbMI/Rz9Hf1e2uuP55cOprsOIfw5EYZkqS+1sGLSQlUNq5C0yucoRb6oZJwyZYqZOHFibjbaNG/e3HTr1i22kz2kg3+QVvkcpciX9jp0cM48OtGwYcOgJLvQz9Hf0e+lvf5KaaNpphT50l6HhSRuabvUAS2tFMqXdqUpho86JPB89uzZwV32YcBs2bKll/YiHUw/eahDNt0Q7rHmmmsGpdmG/i4rG26kg+knLF9ilrZdQ/rtt9/sA7qHpNzdhx88TTj5qpIlXJ5WwvK5OnRUJXc5jBgxIjeG5BJLLGENyaZNmwYl0ePqD6SD6SQsnw8d9I2TD5x8nMHdtWvXXGy6ob/76quvUl9/VbXFcHlaCcuXFx2ExCxtuwfiIekU+MmDurKwAGnDyVcoY7gi0iwfhOVDNmL6CmWOUsbvvvvO/PDDD8FdtiH58mqrrRbrbu3CupIOpo+wfD500DeFsiDjMsssYz2SeTjlif6Ofi/t9VdYh9LB9FAoCzLaz/Pnz/+jtAbClR0nfEf4Zft64XyvGzTjpFLygc94wjjlI+C8V69e5tFHH81FjOTee+9tLrjgAru0LR0sH+lgfPgaJxwMZB9//LHp3bt35k9/wSgh5dHtt98eW+YG6WC0VEK+SuhgvenTp5f0jSyv+TpNgxfB+aI//fSTrXQflUC8DSklfEAlYwyR0gH5nFLFCZXdoEGDP2cQceI6I+RDTj5HKd/UqVPNsccea1577bWgJLswYJx55plWXupPOhgN0sF4oP6oRx8gE7uZSdZ99tlnmwceeMCWZZkePXqYG2+80aywwgpBSbRIB6MjTzqYqKVtLqCSeeGucQH3PiohDgrlc7JQCVmQDwrlow65dx27ky8KGSdMmGBmzpwZ3GWbFi1amFVWWSX2jsHVn6tD6WD6KJQvTh2sBGH5wBkDSy21lNURlrmzDv0eu7fTiKs/V4euLUoH00NYPnA6mAhDMvxyww/JvXvQQgHSRFXy8Tlcnlb5oJh8UChfFDLikczLRpuVVlrJS9JlV0+Fdci9dDAdFJMPCuVLq4xOjkIo69y5s2nWrFlQkl3o90gBlEZc/XGF2yCfw+VpbZ9QTD4olC+tMjo5CkmEIVkdxR46K7hKyZqMxZQoSiZPnpwLQ5L3hiFJbGQlyVr7DOP0L2syxq2DlaZQPjakxZnVICnQ79H/ZQnpYDoJy5cIQ7LwhVdFWisC+aqT0f0+zQ2tpjp0v49CRjySc+bMCe6yC7u08UbGdZpNmJrqzyEdTC411aH7fZrrsCrwRmJIZv34UPq9adOmBXfpwulYVbjfSweTS1XyJWZp21H4gsMPXlMlJRVkcnJVJR/laZUPwvIVk9GVlSvjzz//bDtSApizDid3rLzyyn97n3EQ/o5i9edIaxtFJidXVfJRnlb5ICxfMRldWZrr0FEo32KLLWZzShIvmWXo95hI0w+mjXC7LKw/6WA6CMsU/pz4pW0hwpBLjYBzNoFkneWWW85uthFC1Ezr1q1jO0I0KdDv0f/lJYeuSAcyJEWqmDVrlr3ygAxJIUqHMJCseyQhT32gSAcyJEWqoAPNy45t0pnk4cQOIaKAjWlZ90gC/Z8MSZEkZEiKVEGweR422pA3snHjxrnwsAgRBWy2wZAsjE3LGnnpA0V6kCEpUkVeOlFOkmInatYHRSGigg03TL44SjDLyJAUSUOGpEgVc+fOtVfWYVAkRlIIUTrNmzfPfAqgvPSBIj3IkBSpgvigPMRIkkMS74oQonSYfGXdI5mXPlCkBxmSIjWQe4s8ahwSn3XkkRSi9jRs2DDzhiT9H/1gmvMtimwhQ1KkBpLwkj8tDzkkGQy10UaI2oEhmfWlbfo/+sE0JiUX2USGpEgNP/30U24S8TIY5iGViRBRwia1PGxQox+kPxQiCciQFKmBjjMPy9qw0EIL2ThJIUTpYEiiO1mHflCGpEgKMiRFaliwYEFudiuytM2gKIQonbxMvugH6Q+FSAIyJEVqYAaeF0MSrwpJyYUQpYPe5GFpm35QHkmRFGRIitTw22+/KcBcCFEl7GTOw25m+kH6QyGSgAxJkRroPDULF0JURV6MK/pBTapFUpAhKVJDngzJX375RadXCCGKIkNSJAkZkiI1kD8NAysvKOGwELUjL/0DcuYhn65IBzIkRWpg2SovOxXzJKsQUUFanDxMwDAkNdEUSUGGpEgNGFd5iYFCzjx5X4WIArx0eTEk5ZEUSUGGpEgNdJ558dIxSHCerhCidIgdzIMhST+oiaZICjIkRWpggMjLco4MSSFqT17O4s9TXyiST705c+aU1Bo5acPnYfh0Bj5nXL4TQLulS1+dAUl6kc9Xsl7kQr4ol6Lff/99c/LJJ5vhw4cHJdmlVatW5oorrjA77rhjUCIdjBrpYPQgn88jCpEvbDhed911Vm9+H9eCkmzSuXNn069fP7PxxhsHJdEgHYyWvOhgvd8FLakG8Y74POeYo66WWmqp4C5+SKXAbNYXGARLL720twZNQ6Zz9dWgkQv5ojR8+vfvb4455hgzbNiwoCS7tGjRwlx22WXmgAMOCEqkg1EjHYwe6s9nWhraZ/hYxPPOO89cc801XttRJVhzzTXNTTfdZLp16xaURIN0MFryooNa2hapgVkWXrk8QEcwa9as4E4IUQqzZ8/OxdI2/aBPr5MQ1aGWKFJDngxJlgt+/PHH4E4IUQozZsyQISmEZ9QSRWpgmSAvhiS7T6dPnx7cCSFK4fvvv8+NIelrOViImpAhKVLDYostZpZYYongLttgSE6dOjW4E0LUBF78vHgk6QfpD4VIAjIkRWpgBp6X5RwGReK9fAZNC5FmmHjl5Sx++kF5JEVSkCEpUgM738I7NLMOMZJa3haiNPJkSNIP+twJLER1yJAUqSFPS9uAIUnMlxCiZiZPnpybJP5a2hZJQoakSA0EmPtMlltpyHc2ZcqU4E4IUR2TJk3ymme1ktAP5mXjoUg+MiRFamAG7jNBdqUhRlKGpBClMWHChNx4JOkH5ZEUSUGGpEgNvk9aqTQYkhMnTgzuhBDVMXbs2NzkXi080UeISiJDUqSGPHokifvydQ6tEGkFA5JJ14IFC4KSbCOPpEgSMiRFaiDAvH79+sFd9iH1D4PjzJkzgxIhRDGYcKEneZl00Q/maeOhSDYyJEVqYCmnQYMGucklyaDIAMklhKia7777LjcZDuj/lllmGS1ti8QgQ1KkBhLwsqSz5JJLBiXZh9x4MiSFqB7iIznVJg/Q/3EpIblICjIkRarAI7n00ksHd9ln3LhxZsyYMcGdEKIQPPfffvutmTZtWlCSbegD8UgKkRRkSIpUgRGZJ0MSjyTGJEcmCiH+DpvS8EjOnTs3KMk2GJJcQiQFGZIiVSy77LK5mo3/+uuvZtSoUbnxtghRW/DYM9nKC0ykZUiKJCFDUqQKjMi8daJff/21TbYshPg7o0ePth7JvMBkmkuIpCBDUqQKOtDlllsuuMsHI0aMMOPHjw/uhBAO57HPk34wmVaMpEgSMiRFqsCIzNtsnF3bbCbIyznCQpQKuSPx2P/www9BSfahD2zYsGFwJ0TlkSEpUgVGJJ1onlJf4HUZOnSomT59elAihABiIz///PPcJCInh2SjRo20tC0SRSIMybBRUGgghDuItHcWNT1/VuWLUi6OBWvcuHGucknC4MGDzZQpU4K76JEO/kFW5Uu7XFCsjWJIDh8+3H7OA/R7TKQXXXTRoCR9SAfTS1XjRCIMySy84FLgxYdfPiC7k7/wd2klbjmaNGmSuxihr776ym4qiCsNkHRQOph0Ctsoy9nDhg2LdYKVNOj3mjVrFtylE+lgeinUQUeqDMm0Vkyp8qUZZHT1E7e8TZs2zZ0hiQH5zjvvmDlz5gQl0SIdTD8+dbASFMpE7PDAgQPNb7/9FpRkH5a002pISgfTT1UyJcKQJO7DvXw6BR7WPTDl7r4qIZIOMrirmHxhGdOKq0MnR1iWqsrrCh1pHmOE3nzzzdiOgZMOSgeTTriNEjc8ceJEM2jQIHufF9JsSDo945IOpl8HXR1CYjyS4RcbblTheydAGgnLGJavsCythGUBGlwx+aKQcaWVVsrlrkWWt4kHYxCNmsL6c3UVR/1VimLtsVhZWgnLAnHqYCUIy8IpNsQN520DGju2mzdvHtylj2LtsVhZWgnLAlnWQUA+qPfzzz//r7Qafv//vBzTxkPycAsvvLBZZJFFvL1wBucFCxYEd/GBfMgUls+HjHzvTz/99JdGEAdOPuoQ+fgZtXykwfnXv/5lHn/8cTsryhM9e/Y0N910U6ybjaSD8ZAlHawK6i+OiU4hJCCnDxgwYEBQkn2ox7322svceeeddtNhHEgHoyEPOgjIZOtvxowZJb3RxRdf3CyxxBLBXbxgHGC48kKc+zTuSmAX3FJLLRXcxQvyYJTToKlwH/LRkOvXr29/xg3yUG/Ih5x8jlq+888/33aoeTlf18GO9ffee8+0b98+KIkH6WD0ZE0Hi0H9xb2jmPp65ZVXzO67727lywu828MPP9z06dMnKIke6WB0ZFkHHcjEGLEQwpZyAS8hjsvh7qlkftK4eNAwxZ4tqst9fxyXI1zm5OO7HYXPFOUV/u6oLwefqT8uZHMdBBeEn6ecq1WrVrZDyBucuf3YY4/97f2XezncvXQwniv83VFfDj770MFiV+EzRXk5mOCgA3kyIoH+jn4Pir37qK5i7z6qyxEukw5GexU+U5SXw90jH9+ZiBhJBw8E7oHdvaPwPq24SqhJ3jQTls8RpXxt27bN7TFh99xzT2yxYTW1yay0UelgeuEkmxdffDG4yw/0d23atJEOpois6mBhnSXCkHQNqvClc4/FC5SnuQKqk8+VZ0U+J4cri6MO6VAbNGgQ3OULzhZ+6qmngrtocHXl6tARV/1Vgurkc+VZkc/J4cqyUIdOlgceeMB65vMG/V3aDUlXh2EZXPt05VmRz8nhyrKkg05Gxx+SVZhSX6qriLRRk3yuYVE5aaUUGV0DjAJ2Li6//PKpbRPlwFLJDTfcYObNmxeUlE9N9eeQDiaXUmSMUgd9w/NPmjTJ3HfffUFJfkDv6O/o96SDyaUUGdOug8VIRIsMv9TCFxx+8JoqKamUIl9aG5bDPT8/i8kYtXwEE7dr1y623YtJh1RA7FqPinD9FKs/h3Qwubjn52cxGbMg3/XXX5+rk2wcbHZdddVVbb8nHUwu7vn5WUzGrMgH4c/5c+eIzLD66qvn7sxtBzvl8Ermbde6yC/jx483t9xyS2oNqXKgn6O/EyKJyJAUqWWNNdbIrSHJYDpy5Ehz77335nJgFfmCcI4rr7wytiNCkw6p9zp37hzcCZEsZEiK1MLSNkeGpX25oK7MmjXL7uAePXp0UCJENvnoo4/sBjPSqOQN+jdO8urYsWNQIkSykCEpUguJVzt16pTLDTeAJ5JUKGw+4LQfIbLI7NmzzY033mimTp0alOQL+jeWtfMaDy6SjwxJkWo22GADe8xWXpkxY4Z5+umnzcCBA4MSIbIDHsgXXnjBvPnmm7lLQO6gf1t//fWDOyGShwxJkWo23HDD3HokHV9++aXNrTdx4sSgRIhsQHYCPO6k/ckr7NSmnxMiqciQFKmGlBjkVsszLGu//PLL1nOjJW6RFWbOnGkefPBB623nrOK8Qv/GSV5CJBUZkiLVkF9to402Cu7yC6lR2ME9dOhQ7eIWqYcl7TfeeMM88cQT1qDMM/Rv9HNCJBUZkiL1bLXVVsGn/ILx+OGHH5o777zTjBs3LigVIp18+umn5o477jDffPNNUJJfttlmm+CTEMlEhqRIPZtvvrlm7L/DZgQ8OGy++fHHH4NSIdLF5MmTrXf97bffzmW6nzBLL7206datW3AnRDKRISlSDznW1ltvveAu35Bb8pJLLjEDBgywSZyFSBOcH//ss8+a22+/XfG+v0O/tswyywR3QiQTGZIi9ZCwd7vttgvuBGcRH3XUUTZuUoi0wMSHjTVnnnmmjv4M2GWXXYJPQiQXGZIiE2y99dY2TYb4A45P3GOPPcz3338flAiRXIjx/fzzz80RRxxhpk+fHpTmG/qzbbfdNrgTIrnIkBSZoGXLlmbttdcO7gTg3ZFnUqQB8kUecsghZsSIEUGJYFm7adOmwZ0QyUWGpMgEnP6g2fvfefLJJ83ZZ59tRo0aFZQIkSzwRDLhIeuA+B877rijVllEKpAhKTLBIossYrbcckuz5JJLBiUCiDt77LHH7AYceXtEkmA5++OPPzZnnXWWeeedd4JSAQ0aNLDZKOjXhEg6MiRFJuCYxDZt2pg111wzKBEOdsJiTF555ZXmiy++CEqFqBxMcN577z1z/vnnm5deekkZBgpYZ511TOvWre1GQiGSjgxJkRlIk6Hl7eLMmTPH5pjEM4kXSKffiErBcYevv/666dOnj/25YMGC4DfC0aNHD6X9EalBhqTIDPXr17fJe8krKf4OOSafeeYZc+6555r+/fvn+vxiURnwjtMG8US+++67yhVZhCZNmthjEZdaaqmgRIhkI0NSZAaWt1deeWXTtWvXoEQUwok3eIGOP/548+KLL8obJLzBROaee+6xm7/YWKO2Vxx2a9OP0Z8JkQbUUkWmaN68uenevXtwJ4rBAD5s2DBz+OGHm1tvvVUDuogdckNecMEFNtn4119/LW94NbDJplmzZsGdEMmn3syZM0sKllpsscW8nmf8888/e132YHeczx2/nCHLMo+vWDVmt8jna5aLXMjn86xc5KMeX3nlFdOrVy8zbty44DeiOvbee297JB2hAWGkg9GSJx0Mg+GIPmpnds2sssoqdnK31VZb2XvpYLTkVQfjhPZZ73cBS6rBn376yavngvxZSyyxRHAXP8yQqXBfkPeQCve1K49dkcjna3ckciEfcvoC+ajH0aNHmwsvvNDmUBSl0bZtW9OvXz+z/vrr/9kupYPRkicdRMYffvjBhk+cc845Ztq0acH/IaqC+urZs6eNYW7VqpUtkw5GS5500Be0z3q/W8wlGZI8nM+ZEd5Pn8HGzPzo+HzBjGHppZf2qkDs3PWpQMjnc2ZE/VGPXHfeeae5+OKLvXaKaYddogcddJDZb7/97EC27LLLSgcjJC86OGPGDJuz9IYbbjDPP/+8N3nTDrkjMbo54cfVmcbBaMnTOOgL2qdiJEXmYBbfpUsX06lTp6BElMLs2bPtstoxxxxjvbljxozxOrMV6QZHw5dffmnuvfdeG38rI7J2dOjQwebB9Wl0CBEFMiRFJunYsaM1JnXEWO1gJvvRRx+Z8847z26OePbZZ83EiRNlEIgqYbLx7bffmgceeMCcccYZ5rLLLrNHcqrNlA79FEYkxqQQaUOGpMgk5JIkjUbTpk2DElEbWJ589NFHzWmnnWbjTf/zn//Y9C1COIiKGj9+vHnooYdsSh+uN954w8ydOzf4P0SprLjiimbDDTc0yy23XFAiRHqQISkyC0l927dv7y3+JmtgKOBZIt4UT9PJJ59sj1rEyBT5BgOSdnHSSSfZzSFMOqZMmRL8VtQGdhAThkN/JUQa0WabAAUZR0sSgoxJuXDttdeam266ycycOTMo9Q879tgVvdJKK5lGjRrZds17YUmQOpk0aZLdac7PEtWxIiAHiZIJGdhpp53M1ltvbWWKCulgtEStg7RNYiA5mQbPI58nTJiQ6DabBugTjjvuOHsVpqXROBgteRwH44b2KUMyQAoULUlRIBJvH3300ebzzz8PSvzB8vqBBx5odthhB7t0RRoI8rFikPF+UD2MSfSK5UCMyQEDBphXX33VPrfP3GO1gefnGDdy3m2zzTZmt912s7Fd5da1dDBaotJBTkMaOHCgefzxx80HH3xg26m80tGxxhpr2DyuxeIjNQ5GS17HwTiRIRlCChQtSVEgDLXevXvbOC5yofoCI/LGG28022+/vU2rU0oCXGdUEov48ccfm3//+982uXpSUxi55L6NGze2+Sf32msvs+2229p6rwvSwWgpRwcZFli+fuqpp8zTTz9tvvjiC9su0aEShwxRAuTg23///e0GpWK5BjUORktex8E4oX0qRlJkGhR411139R7EjmHFZh++t9RTFFyn2qJFC7Pjjjuahx9+2Lzwwgv2yMck7j6nM8ZbhYfqiSeesCfkEJPKEt3//d//eeusRXQwaaEu//nPf1pPGXGxb7/9tpk8ebKd5MiIjBYmnEzAihmRQqQFGZIi83Tr1s2svfbaJRt0UcDSXzkefGayeCs4Ko2YtGuuucYuJSd1wMHAwKNKnCeeWJ6b5fwjjzzS5hMklo6ZMqdjycCsPIRN0D7JHTpy5Ehz9913m1122cV6l/fYYw+b9om4Yv4/GY/xQH9EvPG6664blAiRTrS0HSCXfrQkzaX/2muvmUMPPdR60HyABxGD6oADDrDLv1FAnBq5HTmz2JccUUBbIKaS9CYY9Xhq8brSPjjfGz3HQJYORktYB1mSJg6XCwMR45F4x/79+5uhQ4d6fe/iDzjJ5v777zebbbZZUPJ3NA5GS97HwTigfcqQDJACRUvSFAhvGTuNMcZ8QUoPdoxvvvnmkXhD0UGSg3MmNifP4P1LIxjZrVu3tl7izp072yXUZs2aWaMSg5J24z7HSRZ1kO4cry+6wMV38fObb74xn332mb3YyEWqHl99gSjOlltuadMmVddHahyMFh86GEaGZAEyJKNFChQ9NSnQiy++aL2SDLS+2HTTTc2ll15qNtlkk7Lr2ukgRvGDDz5ojVQ8S2kHI5tlcJbuSSfUsmVL67EkLQoxZGxWwnvjfkZlYKZdB2kLtHmWp7nYDENIxdSpU23c6tixY824ceNsLtBKpr8Sf4fsDZwERAqt6tA4GC0aB6NHhmQIKVC0JFGBWN5jQwibB3zCku6pp55qN9DQrutKWAepx+eee85cf/31dmkya2AsYkTiqVxhhRXM8ssvb38Sw+eMS+7x+lJWF9Kkg8Qqfvfdd3bigFGI0Tht2rQ/DUc+syGGi7CHErt1USFYpXjkkUdq7A80DkaLxsHokSEZQgoULUlVoDfffNOm2/DZlgFv22GHHWb2228/06pVq6C0dhTqIIYx8vTt29cMGTIkKM02eC9Z9ibmkp3FhxxyiPVm1oW0GZKkhLrhhhvM4MGDlYonxbCJDm8kG9JqQuNgtGgcjB7ap3Zti1xBWp5SOvCoIUYNg490KiyxR2HIMsgQZ3XiiSea1VdfPSjNNgwAvDsM83/84x/WK5kH8NDifSUvKQOTjMj0Qv9DPyREVli4z+8En6uFuCwuX2DB+8ydxwDlM3YOzwpxMr5mYgw6yOdr8EEu5Itik0mplJJahnZF7B0paXy2Z8CjiEE5aNAgG7/GcYMs2ZbaBorpIPIQU8hSL0fWZf3EEdoT6VLOO+88s+aaa5Y100+bDvKsbdq0sTJ/8skndge2SBdkcLj44ottvtVS2p3GwWjROBg9tE95JEWuQKHx3nECSyVAyUeMGGFuu+02c/jhh9u0ROUuQ7C0wI50Ug3VNV4wLbAZh3jTtdZaqywjMq2wrE9oRs+ePe0SqUgXHJdK/+PTsBAibtSaRe7AC4jRteyyywYlfmE2zIaI999/3/Tq1cueXlOuFwAD46CDDrIDVU0B/GkFgxkjiuX8uFMDJRnq+rTTTrMeWZEeWAmh36H/ESJLyJAUuQNvAPkLd999d29LKsVg+YE0Lf/617/smdrlLrVjGBMv2bVr10x6PDCcjj766FwbkQ6O3rzqqqusUSmSD/0M/U3Hjh3ljRSZQy1a5BI2abBZg/jCSjN9+nRz8MEH2x3Y5ca2EHfJWdfIVUkjOWowmIgt87mDNemQyP2II46QYZICSMDPRqm8bA4T+UI9kMglGFnE2RFbmISlYIxJ0gOxEafcQPAePXqYPffc0wZ5ZwHqap999jHrrLNOUCIceKDbtWsX3IkkQv9CP4PhL0QWSZwhWehFCQ+qvnZaxQXPX0w+J1cW5IO01CEbU7bbbjuz2mqr/e2ZKwGnkBxzzDFm+PDhQUndQBZiLzGUs0Dz5s3NCSecENyVB+0vSzpIKiCW+33u7BWlQ1sjjGabbbaxMZKlkpY+tC7w/FnSwULc82exDsMyhT8nwpAs9aUWVkxaQD6ump4/rfKBky9tMnbp0sV28qTPSQKcUnPRRRdZo7IcCOg//fTTK7ahKEr22msve2RiOWRZBwnRkLcrmaB/1A/nytcE7bMU0thGIcs66HDyZVXGqkKvEmFIhl8qDxpWKH7nGmC4PE2EG5aTz8nifpdm+SAsR3V1mDSIvWPZCYMyCbFmvDsSlpMeqNwTJjiGjZNf0hxDxwk2bFIoF9c+IWs6iLGCsa1YyWRBfdCvcDQq+SNrwrVP0DiYTsJypGkcLBUnH4TlS4wh6R6OBwt/BnefZgpl4D7NDaqQYnXG5zTI2KFDB7PLLrskJhCe1EAPPfSQTZpezvtjdzObMbbYYougJH1svfXWdT5SspCs6iDL2pznzkYrkRyaNm1qJ0GlxrDSHsP9aPgzFLbfNFIoA/dZ0EFHsTrjc1ZkLFZ/sPD5559f8sk2nPfKP4z6crh7BkAuZnTh38cJsiGje4aoL3A/nXxcvqAhu8TXhc8WxRWGegvXoS+oP2ZJxZ6vuotnxFj54osvzLfffmvbQqXhPFjOUyblDQMS1EUH8bhyGsoHH3xgN/SkCQykM844wxr6ri8o5wL3M2s6SHL28ePH5+bM9aTDBhs2vRG/ig4Wq7PCy+Huw31o+PdxonGwvCtM2sbBUq4wYfnqzZ49uyRT2edRTVS2a9C+LHlehq9drshERbsK576wkqKGv0/nFvf3APJwOcPHh3xA/VGPdWXAgAE24fWYMWOCksrCchg7uc8880zToEGDOusg5zI/9thjdofv7/oelCYfNgs98sgjsexKzpoOomfPPfecOfDAAyM5x12UB95hVhXKOVObNqlxMFri1MFCkIcrbeNgbXDy1Zs+fXpJLZTjuEqJ84gCHo6TPjibmAbm4+UzQLMD0gfu5XNWLg0M4paR2QPGiI+ZEfJxsUTrOkEfdUj9lTPZoS7OP/98c+WVV5Z9bGFUkA/yggsusEvv6F9ddRDv5k033WQ4Wj8pstUE+TCpjzhOAsmiDuKN5NjNjz76KCgRlYCB/Oyzz7ZXOQM6bVTjYLRoHIwWZKJ9+vO3VoN74VzgXjbK46DMRyXEQTH5uLIiHxSTr1hZkqHTZymV0yeSwtixY80TTzxhRo4cGZTUDTZkHHrooTZmMg1nVNNWunXrFtmuc9cWC9tjlnSQdFbavV15CMXgCMvaGpHF2ihoHEwPxeQrVpZWnCxheficCEPSvVz3UA7u3cyB8nCDSxPVyRcuT6t8EJbDyejKqENX7n6XVJjN3XDDDYk6eu6NN94wr7/+up25l0OzZs3sAMcpOkk/IYalwZVWWikyo9e1RddGHYXladZBdrgTU+vD2yKKQ79xyy231GnloLAtOrjXOJgOwnI4GV1ZmsbBqnCyOBldWWI8kqXAA2cNJxPvIIvyFZIGGUmbQ2JwX8sDNUGMI7GCJCovt5NlU9FZZ51lT4ohd2ZS66NTp06xLGkXIys6SOwXR/FhUAr/0F+QOH+TTTYJSmqHxkGNg0mnqjaaqqlrFhtYqZ1H0nFyUEeF9cTv0iZn7969zUYbbRTcVR6MSNIBRbFZhl3c5557rt3Iw3JoEvVqlVVWMcstt1xwFy9Z0kFOAWrbtm1QInyy8cYbm1NOOSW4iw+Ng8nFyZGVcbBUEmFIhl94sZfvyEIlVNUJVFWeFmp6/rTJhxGD5y6qHIblgicSr+Snn34aydIPS8cYk6eeemqiYkKBJSCM3bhO5cmyDjIxwJgUfsETzOaaciY/4fZX2BY1DqaDmp4/S/KFPyuYRogiYMywRMWZ1UmJJ+TYRE68YZdcFDRs2NCmBLr88svNbrvtZjMzJAHizFZcccXEPE+aoE5d3lHhB/oH+glWMBSfKvKIWr0QVYBBs/fee5sddtghMQPEs88+a95///3grnxIVbLzzjtbY/KSSy6xuRsrKSvvfLPNNjPt27cPSkRtIO4VQzINO/OzALrCEYh77rlnojboCeETGZJCVAGue5a2//Wvf1kDKwlw/nbfvn0jX97CcDvyyCPNzTffbJfo3GkyPuA9czzlHnvsYXNdXnHFFWa11VYLfitqAwYkm5Rk1PiBXfL0D4SKpH3ZUoi6snDv3r1LOiKxrqdq1BUSlPpMnOwzoz8Q50ayWV/QyfnK6O9APp+pHOLI6M/fI20Ocnz44Ydlp+CJApa4N910UxuXFSXod4sWLcw666xjunfvbj9///33ZsaMGX8mDI4SlgTZoMCyIEvsLK8TTsCyto++Jqs6OGLECPPuu++m6hSjNEI8Kru0d911V1uvcaBxMFo0DkYP7VMeSSFqAO8O6XJ23313r51sVZAO6LrrrgvuogUvJBsGunTpYo499ljz5JNP2k0+Rx11lE3JUw5MRtmNvd9++5lbb73VvPfee+buu+82hxxyiP0+DPa4BuQ8QXv1dQpZXqEfoD8g9CXpOVmFiJtEHpEIDJY+vT94QHwdDQUcmcQypa8deBgIvo6GAuRCPuT0RdxHQ7FjGuPqnXfeCUoqBwbX559/Hmuql2I6OG3aNOuZHTp0qPV8TZgwwUydOtV6v+zM9Pf2xSDLUjUXRzyyTM7OcE5dqS7dkHQwGkhgz2586kjEA7lmCcPo3LlzUBIPGgejReNg9NA+ZUgGSIGiJasK9Pjjj9u0QN988423uisGSxc8B+dwx7VMU1sd5H2U8yzSwWjA00s+w4EDBwYlIipo33jVL7vsMtOzZ8+gND40DkaLxsHooX36eZtCZATi+A488ECbZqWSEDvFsvPkyZODksrjM+5IVA0eYZ8DSZ4g7OOAAw4w//znP4MSIYQMSSFqAZ5ANoYQYF/peEmWlZ955pmKekZF8sCgl1EfPRjnpMo6/vjjvW5mECLpyJAUopawNMKycl3P1I2KOXPmmEcffdR89913QYkQf0x2fC3d5QkSjp922mneju4UIi2otxGiDhAnRXxiJfMdsrw9bNgwu6uaWCohAG+kDMloQc/POeccnWMuRBHU2whRR9Zdd117XvVKK60UlPhn5syZdnlbGyuEiAf0mxWIrl27BiVCiDAyJIUog6222sqmWll22WWDEr+Q6Ja0RPfdd58ZO3ZsUCqEiAJ2wLIDngT9QojiyJAUogwIwN9ll11sAH6lkmnPmzfPnsH92GOP2VQTIt+QasRnupGsgm6j1+i3EuULUTUyJIUok2WWWcaefHPQQQdVLDaNowxJkPz666/HcpyhSA/s4tdO/vJAj0nzxSlMlVptECItyJAUokzY3MDxfkcccYT1XlQCDIdRo0aZs88+23zwwQdez3YVImvssMMO5sgjj7TnviuVkhDVI0NSiIho06aNOeaYY8xmm21WsTxzHJvYq1cve4yhPJNC1A70lrRexx13nM3MIISoGRmSQkTIOuusY4Pz2dG9yCKLBKV+wZg89NBDzdtvv620QEKUCEZkly5d7OY57dAWonRkSAoRMd26dbOeyY4dO1bMMzl8+HCz11572YTlSTpGUYgkgp6uuuqqf64oCCFKR4akEBFDTBUxVscee6xNYFypGKtp06bZOK9LL73UDBo0SN5JIYqAfhKWgr7uuOOOiokUopbIkBQiBtj1udtuu5mTTz7ZrLzyykGpf0gNdMstt9jnuOuuu8zIkSMVOylEiObNm9vz8/fYY4+KhaMIkWbqLViwoKQ8EeQl8zkAsdTgU6nZ5frzzz8Hd/GDoYF8vma/7OpFPl9pQZAL+Xymw0E+n7uVka+mpWue6cknn7S7qSuZMJz6aNy4sd1IsPXWW9tE6i1atKi2fqSD0eJLBz/66CNz5plnmgEDBgQloiqaNm1qLr74Ypu+a7HFFgtKq0bjYLRoHIwe5PM9Dtb7/YWW9EbxbMyfPz+4ix8SwC611FLBXfzw8n0mc+blc2qCLwWiYc2ZM8dbA0Mu5PPZCVJ/PjtB2mcpiYp5JhKGswlnzJgxQWlloD6aNGli1lhjDbP55pubbbbZxrRu3bpoRycdjBZfOjhkyJA/00CJqkEPrr76auuJLDXhuMbBaNE4GD2VGAe1tC1EzHBCxs4772z69etnjbZKgkdlwoQJNnE5z8Pu7hNOOMGe1z1lypTg/xIi25Af8pprrjE9e/Ys2YgUQhRn4T6/E3yuFt/HbmHBMwD7ghnKggULgrv4wQPEUoqvmRiOZ+Tz6dJHPp8ufeTzNdME2mepM02WqNh4wzV48GAzc+bM4DeVgXYwd+5cu6N7xIgRNlUQS/DvvfeemTp1qq235ZZbztSvXz/4F/FAfZFInbyXL7zwgnnqqads2/FhcGdVBydNmmTefPNNM27cuKBEhOHwACZR//znP82SSy4ZlJaGxsFo0TgYPZUYB7W0HSCXfrQgl5a2/w5K/uKLL9rNLxhQSQODl4uOj/ojJUrnzp1Nhw4d/jSEV1hhBRtvSQdZHXQtP/74ozVMOcKRGNGJEyea0aNHm++++85u/GGpH4OWdsnFcZMsy3LcZNxkVQe1tF01rVq1MldccYXZddddzRJLLBGUlo7GwWjROBg9lRgHZUgGSIGiRYZk1eDRYCn5rLPOssZUiSqYKDA08eZwMSDzHihDtlmzZlmZ6tJn4AU977zzzMEHHxyUxIcMyfxAHZPih1RYu+++e537JY2D0aJxMHoqMQ4qRlIIz9CpkBoIz8jaa6/ttZOJCjpivI3kqmQJ9ZtvvjFff/219bJOnz7dzJgxw+uAK0RV4GHv1KmTueCCC8oyIoUQxZEhKUQFwHvH8tpll11mNtxwQ69xUELkBfSK4w5J8bPvvvvKiBQiBmRIClEhWPYg/c5FF11kczvKmPyDNC71i+SBPnHcIfrFpM3nhgch8oQ0S4gKs8UWW9hl7j333LPGDSxZByNShqQol7DHv0ePHt5i8ITIIzIkhUgAJAi/5JJLbE5Hdi4LIeoGmxt69epl9Wm99dYLSoUQcSFDUoiEwJncZ5xxht213LJly6BUCFEqpKbieEh0qH379kGpECJOZEgKkSAaNWpkDj/8cHPVVVeZtdZaKygVQtQEhuPll19ujjrqKHtyjRDCDzIkhUgYLG0T33Xttdfa+C5tEhCiejbeeGNz3XXXmX322cc0bNgwKBVC+EAjlBAJhETEm266qbn++utt2pK6nMKRRshP6StZsEg/5IjcZZddzM0332wzINT2yEMhRPnIkBQioTBIduzY0dxwww3mxBNPtKe+ZB0ZkuXD6UK//vprcJdd2FRDGMgdd9xhw0DQFyGEf2RICpFwMCBJqEzcZLt27TI9YCr9T/lwPBrGZFYh1IMzs9mYRkwkG2yEEJVDhqQQKQDjcb/99jO33Xab2Xzzzb2ev+sTPGlZNoJEeRDysc4665irr77aHH300bkJ+RAiyciQFCJFcDb3rbfeag455BDTunVrJVoWuaFZs2amZ8+edim7e/fuQakQotLIkBQiZTRu3Nicf/755qyzzrIbcvDSCJFVOOoQL+Qpp5xiwzvItyqESA4yJIVIIYsssohNEdSnTx9z4IEHmubNmwe/ESI7MGnCC0k7P+CAA7SULUQCkSEpRErBmGS3Kp4aTvPYYIMNcn9Wt8gGbKjp1KmTOemkk0zv3r3NRhttpLYtREKRISlEiiFGskmTJma33XYzl112mfXa5CFNkKiatKf/YSPZTjvtZC699FKz//772x3aSu0jRHJJhCEZ3jBQuHkgnAokrWlBnEw8fzH5nFxplQ+Qyz1/VXUYljVthGWqSj6olHwkYsY7iffmyiuvNKuttppOxAnh6oz6KVZ/rt4qVX9RgFxOljTKwfOvtNJK5pxzzjGXXHKJ2WSTTUyDBg2C3yZfB8slL/Lx/MXkc3KlVT5ALvf8VdVhWNa0EZYp/DkRI02pL7WwYtJCVQ2rkLTKB8jI81cnQ02/TzJpaKN8NzFlnPTxyCOPmIMPPtgufwvpYBrYYYcdzKOPPmozEhDzW9h206CD5ZAX+Wp6/rTKB6XoYE2/TzJVtdHEuSwKHzTNjaoYeZDPXVkl6bKxyxXPTt++fc2zzz5rY83E/8iDDqYJ0vrceeed5r777rNttZQsBFnuXyBvbVTjYPoIy5aYpW3XkDgerdjLT3OlOPm4islRVXmaKJSPz45weVpldPJBYRtNsnxsUnj55ZdtqiCMy6RvWOBUlgULFgR30eHqL1xXYaoqTxNOvjSAt7FRo0amV69e5o033rAxvjURli9NOlgq1cnnyIJ84boKU1V5miiUj8+OcHlaZXTyQbiNJmZp2z0QD+liu3hQR1iAtOHk+/Ol/y4fsoQrIs3yQVg+5EDGwrI0y1goC8H/3Ls2mmT5iDNj9+v9999v/vnPf9plQ7yWSYT3GcdGEVd/rg6zrINOniSC3iy//PJmyy23NLfffru54IILzIorrhj8tnrCslFPadLBUiiUT+Ng+gjLhxx5GQfr/fjjj3+U1oB7Kb7g4cIKFDeVkC9cKT7wufMxLB+XD8VxHZMPKiFfFG101qxZ5pVXXrGxaIMGDTLff/+9Vz0rBZKtk84obsL15wsfOvj666/b9/fpp58GJZWHtrvMMsuYNdZYw05m8ECWakBWRbj+uNKig7UBuTQORovGwej4U67p06eXVIMkgmVnqA94MJa35s2bZ5XIx0vBQ7P00ksHd/GCfKToQD68Lz4aGI0Lz5SPTgJ5qDfkY6nSh3xA/fnytCHf/PnzbTv11Uaj1MExY8aYZ555xrz44otmwIABZvbs2cFvKs9FF11kd+7GSZZ1kFCG0047zXz22WdBSWVxJ9Nss8021oBcc801I3kHadfBmqBNahyMFo2D0eJ00N/Uoxp4we4C97J5yHCZj0qIg2LycaE8yBguSyuF8qGoxeovrTI6+Zw8yMfntLZRcvMdd9xxpl+/fjZ+crPNNsv0qSGF9efqKqs6mATQEYzGE044wR5tyOSgS5cudR7EC+sw7TpYSKF8To4sy8elcTA9OPmcPE4HE2FIhl+ue0Dg3nU64YdPGzXJ58rTKh9UJV+4PM0yFsoSLktrG+XZyTd58skn2x3eF198sT27u9IbchhYuKLE1RVXuI5c/bnyNNVfIU6+8MBVCXiftCu8oldffbU577zzImlXTj5XV+GyPIwTkGX5XHla5YOq5AuXp1nGQllcWSIMyergIbNMFuUrVBLVYbJhGWS99dYzRx99tLn22mvtiSLrr79+xQxK34ZQ1tpnpQYqjIH27dvbpPg33XSTOf30083WW2/9l6TicaE+Jt1kUb48jYOJMCRL7fTSWhGldOyV6PijpFT50lyHpZBm+Yj9WnvttW1Kln//+9/2yMXVV1/de1Jz3mHU7xH5Sm2jacU9P+/OebB8wPe1bNnSLmHfdddd1hNJqATpfaKk1PpJsw6WQprlq0nGUt9BUilVvqy10UQYkuGXWviCww+e1kaGTE6uquQrLE8bYfmKyejK0lyHjmLyOdIuHz/xILE0eeihh5oHH3zQxlES2+ZjtyPeUc5ajvq7kCssY5is6WD9+vW9xLvyfaSSOuWUU+xJSoRI4Mlu2LBhLIZsuH6qqkNQH5NMkMnJVZV8heVpIyxfMRldWdbaaOKXtoUQ/qGTwEOJp2nfffe1O4HvuOMOayjECTkGmzZtGtyJutCkSZPIvYGFUEfEPr7zzjt2KZsTaTBgfXpChRDJQFovhKgWjAPiJXfddVfz0ksvmeeee87svvvu1vPEcXaFM+9yWGWVVUzHjh2DO1EX2rRpY9q1axdpSAJ/i7Qi6667rrnhhhvM0KFD7VI2BqvPvHxCiOQhQ1IIUTIYjd26dTO33nqrzUF5xBFH2CTTjRs3Ljt3GR6tzTff3C6ji7rDsva2225rN76UY+QzgSDMoW3btjb/4z333GMnEfvtt19J52ELIfLBwr179+4TfK4WZqS+klwC6T9I4ukLZtU+d6myMzWOM4WrggElau9RTbhEwb6g/nx6R2ifUaepqY4k6SBGBsYjhl+PHj1M69at//SAUe8//fST/VwqtE02aODl4kxwH2RZB3mHU6dOtafbkDC4NqBHLVq0MGuttZY1IE899VRz4IEHWi9nTe1POhgtGgejReNg9NA+ZUgGSIGiJw8KlPdBjPbE0Xcknt5uu+2sd5L4OXc6xty5c+3pFdXB/0uaGIzITTbZJCiNnyzrILrQoUMHM3PmTDN27Fjz448/Br8pDs9EvWE8du/e3RqORx11lPVsUl6qXkkHo0XjYLT41EFHHsbBRB6RCHg0GIR8Qefg62goYHD94YcfvO3ecstUvoLhkQv5ajIiosTn0VBA+6yt560c0qSDkydPNh9++KEZNmyYGT58uBk5cqT1kHFcGG0DWfBosmxKDstddtnF7hSXDkYHcnEU5tNPP23efPNN8+WXX5qJEyf+WacMOMS54k1mswyTgK5du9oY1boORNLBaNE4GC0aB6OH9ilDMkAKFC15USANYtXDbByP2KhRo8y0adPsMiuzc7wC7NBmYwjGJPUmHYwWp4N4DEaPHm2+/vprM2nSJFun/I72tOyyy5qVV17ZLlvzbOV6aqSD0aJxMFo0DkYP7VOGZIAUKFryokAaxGoPbaOYwSIdjBbpYPRoHIwW6WD0VEIH/bxNIYQI8BmfJIQQIl5kSAohhBBCiDohQ1IIIYQQQtQJGZJCCCGEEKJOyJAUQgghhBB1QoakEEIIIYSoEzIkhRBCCCFEnZAhKYQQQggh6oQMSSGEEEIIUSdkSAohhBBCiDohQ1IIIYQQQtQJGZJCCCGEEKJOyJAUQgghhBB1ot7cuXP/G3wWQgghhBCiZOr993eCz9Uyb948M3/+/OAufhZffHGz1FJLBXfx8/PPP5sffvghuIufRRZZxCy99NKmXr16QUm8/Pbbb2bOnDn2pw+QC/mQ0xfUH/XoC9on7dQX0sFokQ5Gj3QwWqSD0SIdjB7apwzJgCwo0IIFC+xFXf3000/2+uWXX2wZn5Hv119/rVaJeJ6FFvpfxAPP6S7KF110UbPYYovZe+qIz5SF/w1oEIse6WC00DY1iEWLdDBapIPRIh2MHtqnDMmAtCkQxuHMmTPN999/b39yTZo0yUyZMsWMHTvWlk+ePNnMnj3bTJ8+3cyaNcsak8jJVVW1L7zwwvbZ+OmUoH79+vZacsklzbLLLmsaNWpklltuOdOwYUPTuHFjezVo0MBe/P9c/L5p06bW0PSFBrFokQ5Giwax6JEORot0MFryooMyJAOSrkBUEwbhd999Z0aPHm2vUaNGmZEjR5oxY8aY8ePHW6PRl4KEQZZlllnGNGvWzDRp0sQakCuttJJZZZVVTIsWLWx58+bNbTney7jQIBYt0sFo0SAWPdLBaJEORosMyQKkQNFSigLR2PEwDh8+3Hz66afmiy++MCNGjLDG48SJE+0ydVJBriWWWMIajy1btjStWrWyhiVX+/btTefOna3xGSUaxKJFOhgtGsSiRzoYLdLBaMmLDsqQDEiSAvGuMRzffPNNM2TIEPP111+bb7/91i5PpxmWufFY4q1cddVVrTHZrVs306VLl0jqWoNYtGgQixYNYtEjHYwW6WC0yJAsQAoULcUU6McffzRvvPGGefbZZ60ByfI1sY++Gr1P2JxDHCWeSgzKbbbZxvTo0cOsuOKKwf9RezSIRUvSdZA4YHSE91IXiAMm7remQYy2yuSnTZs2QUndiHsQIwaaMBdWMQC5kA85o4Z20bVr17+9O+lgtMSpg4RCff7557bdONicWVd9qg70Z+WVVw7u/ocMyeiRIRkiT4YkjfrJJ580//73v81nn31mpk2b5vVdVxo8lWzgadeundlzzz3Nvvvua5Zffvngt6WjQSxakqyDDIDXXXed+fDDD8sK8SjMNlAMdJRY3zPPPNNsv/32QWntiXMQYxL68MMPmzvvvPMvbYRnj2OQxjjdddddzVVXXfWXvy8djJa4dJCNmCeccIIZPHjwX9oj5kCJJkGtYLPmGWecYXbaaaeg5A9kSEaPDMkQeTEkX3/9dXPRRReZYcOG2e9Pctxj3DCoU+frr7++6devn1lzzTVr1cFoEIuWpOogOnLfffeZs8466y/elDjBcNptt93M/fffX+c6j3MQ++abb8zee+9tf/qCMBX6rzXWWCMokQ5GTRw6SPt75plnbHvxWVerrbaa6d+/f3D3BzIko6cSOqgjEisES3KHHHKI2Xnnnc27775r4x/zbEQCyo0SEBt6/PHHezMSqoOlnrlz59pniWOmLmoPdcKynM/2gW4SZuLTiKgNpAPDy+QT3sWMGTOCO5EW6MfIAOLT2ABW2kQ2kSHpEQwlOl68Kbvssov9mdSBqdIwKPoy3PgejBI617feestccMEFZocddjAdO3a0sT0uvqdTp052afO8884z77zzju0Yk2DsCiGEEJVChqQnMDjYiY0RcvbZZ9td2PJwVQ3L23FsEiiEemE5kPjUnj17mr322svG3g0YMMBuWsDTA/zk/oMPPjA33nijjQ/D2Lztttvsv9eEQAghRB6RIekBlmtfffVVG2xMQDyB8aJ6SAsUpyGJEc+u3+eff96cdNJJ1gs5dOjQWi33fPLJJ/bfHnDAAeaJJ56wJwsJIYQQeUKGZMxgrBCg36dPHzNw4EBvQb5phkTm66yzTkk7ausCdTBu3DjrTTz//PPNe++996fnsbbwt/BennLKKXaD0FdffSVPsxBCiNwgQzJGMCKvv/5607dvX3ucoSiNtm3b2hNx4tjJh5E3YcIEWy+33367PSEoClj25u9dccUVNjWNjEkhhBB5QIZkTHD2NWl97rjjDu1srCWcdEMi5TggrIAYSEIM2PkbJey8Jx8oMZSciS6EEEJkHRmSMcCyKUvZjz76qDZh1AFOzIgrf+Fdd91l64WUPnGAcfrYY4/Zi3QxQgghRJaRIRkxU6dONRdeeKH5z3/+o9QwdYD4SBIc8zNq2ByDt7CUpNflQBqhW2+91Xz88ce5zw0qhBAi28iQjBA8UJdffrl56aWX5ImsI61btzYrrLBC5BttiFlkYw1xqz4g4TybeXx9nxBCCFEJZEhGBN5HDIennnpK6X3KAG9kw4YNg7vo4Ci3QYMGBXfxg+H69NNP24032qkvhBAiq8iQjACObMOAfOCBB+yGC1F3Vl99dbPccssFd9GAIUdcpO8jwfg+NvXUNbWQEEIIkXRkSJYJMXCcdsLJKOzUFnWHuMhVV13VHnIfJaT7GTJkSEXiFV9++eXYNvYIIYQQlSYRhmQ4X2Bh7sBwPr6k5ebjedih/eCDD1pDRZRHmzZtTPPmzSOPj6Ru5syZE9z5ZcyYMXZ5O+mkVQdFfsh6G82LDvL8xeRzcmVBPqiqDsOypo2q2mi93wUqSaJ58+Z52UDCw/FIiy++uE0Bw+fCCokDliFru5uXWMh7773XXHbZZYqLjIAdd9zRXHnllaZTp05BSe2g/ootX5Mk/Kabbop9t3ZVXHvtteaEE04I7upOoQ6iG+wQ//DDD2Pxei6yyCJWD8M62LhxY7PZZpuZRRdd1N5HSak6SDwyu+I51tInPXr0MI8//rhZdtllg5LaQYgFE5o4Yma/+OILs+2223pt48sss4w9YpT24KhKB6PGjROMEYVtNE6yMA6yMnP33Xebww8/PCjxQ5MmTcyXX35pPzv56GPCK1Bx12GcOliIkwX5kNNXG62EDibOkHQk3ZBEGdm8gYEwcuTIoFSUw8knn2zOPvts06hRo6CkdlSlQMcdd5w9C7tS6ZiOPfZYc8MNNwR3dadQB4m9JM0U7yyO2NxieteqVSvzzDPPmA4dOgQl0SFDsu7kzZB0ZNWQdGTVkHQ4Q9IZJXHXoU9DEpAnq4akg/aZmKVt94KpYF44F1Du7l1ZEqCyOLVGRmQ00BhZ2q7rIF0dGFlsiKoUUR3DWAidxddff20mTZpkB7ioL7ychRftXaf2iEpQbJxwJHWcqA3F5HOyZEE+cDIWkyVcnlbC8uWljUIiDMnwi+UhiZHjJw/qysICJAE8Qa+88kpwJ8qF2Ei8XQsvvHBQEh2VNCIhzl3bleiQKrFpSYhi4wSEy5I2TtSGYvLxM8njYG0pJmPYIMmSfMjGeFYoc5plLJTF6WC9+fPn/1FaA4XWdVzwHeGX7euF871OYWsCb+Tmm2/+Nze9qDtbbLGFjWVca621gpLaU1Ub3X///e0SXKUMyj333NPcd999wV3dKZSPdnj99debSy65JCiJH5ZoWN79xz/+EZRER6k6yNLizTffbM4999ygxA/du3c3Dz30UFle87iMcDZ0bbnllrZN+IKlbdKedevWLSjxN044nLHlC1/y8R1xjYO0Qfqjo446KijxQ9OmTc23335rP8cpX034nAhXQr6K6OD06dNL+kZSsyy55JLBXbzwIvDiEAtFpfuoBDYPlJp2hnO0L7roopIGPVEa++23nz1aspxk5NRfsU0gxCiSnonl2kpAHC2n6pRLoQ5iNFx99dW2PfoCQ5LcmBhVUVOqDmJIXnfddeaMM84ISvzAZOeee+6xBlRdoMNt0KDBn7P4KPnss8/Mxhtv7DU7AbLQFvheR1U6GAf0v7QFxgo++xgnsjAO8reYEEWxAbA2NGvW7C9hPhg7TO7pl3kmZ1zGSZw6WAjyUIfIh5y+2mgldDBRS9tcYC3c31+4a1zAvY9KqAnS/fTr18++wLSCMcDu286dO5vtttvOesx69eplDa6TTjrJ9O7d25x55pnmlFNOMccff7w58sgjzcEHH2x23nln+/+vu+66pmXLln8E2UagkPwdjkaMOhG5Y+WVVzaLLbZYcOefVVZZJfiUDdBLIXwTHiPA9T30xUkbJ+qCk8/JkuRxsK6E5XOyZKX+oFA+6pB7Zy84+dIqY1g+cDqYCEMy/HLDD8m9e9BCASoB308qF5/LR3WF94bxVL9+fdO+fXu7vMty4MCBA83kyZPNlClTrBeDc8E59YXjHdlZjJHMeeGXXnqp6du3r/X83HLLLXaX37PPPmv/f9LNkB+RTSwY1h9//LGd4eJR3Geffewxh3htmL0zM3J1WBXLL7+8NUzjUq4uXbp48yIUguzrr79+cCeEqCtujCgkaeNEXXHycYVlyIp8UEw+PofLsyYfFMqXVhmdHIUkwpCsjmIPXSkwmjC6ktoIeFcYjiuuuKLZdNNN7ZLnG2+8Yfr3729uvPFGc8QRR1ijhvQ6UbxXPJt819prr20NSGLWXHL2r776yr4rvJssg7IjG4ORdBaFrLDCCtYjGRfrrbeejc+pRFtac801zUorrRTcCSGioNhAnWWyLB+yuStLZL2NhuVLhCFZqmFWyYrgGe+//34zY8aMoCQ58F5YFsZoOfroo613kCB4lqQ5ctBHvMRfGtXvs2cMN4L/yQ2JQfn000/bxO14RtdZZx3rgcToZeMCHsM4l395N+TYw/D1CfVCknXf3xs3WtoWlSAN40Q5ZF0+qE5GfseVVfnA/T5rbTQRhmT4pRa+4PCD11RJcUKuPnb+kksvSWCMYZjhbbz99tvN6aefbnc++26o7vv4Wey7Se3Ts2dPc9VVV1mvJZuVDjvsMLtzkMS4eCvjZN999439Owpp0aKF3d3sK/BZiCwT7lcK+5ikjBPlkHX5wMlVlXyUZ0W+YjK6srTKGJYp/DnxS9tJ4eWXX7aJmJPSAPD64dXDw0dM44knnmhjIePIwxg1eCvZuMPSO4ZvHKekFIK3FmPSFxiPLPezrF3YoQghhBBZQYZkCbC5hljD77//PiipLCyV4nUk/pClY3ZRF4s9FP8DY450F742vmywwQbWWC41pZQQQgiRRmRIlgCbR4YPH+71/MqqwOO40UYb2XOGd999d7tRRZQGy+sXX3yx9eTGCZ5hlu3btWsnb6QQQohMI0OyBljKfu+998zo0aODksrCKRKk5iEJsLyQtYcTiUhTRB7NOCDp7iGHHGK22mor1Y8QQojMI0OyBsi5+Mknn9iciZWGZVnyWK622mp/5hUTtYPcmmz6ufLKKyNPy8N54ccdd5yNxeT0BCGEECLryBqpAZa0yYlY6ZNsSOPDMX+c0qLl0vIgbpGNMLfeemtZZ3s7qI+2bdtaT/Ghhx5a5yP0hBBCiLQhQ7IGvvjiC/PNN98Ed5WBPIicOkPybxENnLqzww47mCeffNIeD8k7rq2Xl/+f5evddtvN/h0212g5WwghRJ6QIVkNU6dOtR7J2bNnByX+wTDh3GvS18gTGT0kQufoyP/85z/moIMOsifsNGzY0B6pyO54Z1zy7rmnnN+zcYfNTuQWveOOO6ynWAghhMgbMiSrgfOk8UhWCowYTmQhqbU8XfHBTng2LxE68H//93/2OMljjz3Weiy32GILs+GGG9pNOpxSc8wxx9izx9mAxfnjXbt2Df6KEEIIkT9kSFYBu7XZqT1ixIigxD+kqdlvv/20pO0RPJJslmEzzjPPPGNee+01e1Y5eUQ55pGTefbaay8lGheJQ+1RCFEJZEhWwfz5821s5JQpU4ISv+CB3H777e051Gk4rSar4BXm/dc2flIIn2BE6ihOIUQl0OhYBdOnTzdffvml+fXXX4MSv5DMukePHrHlOxRCZAcMSU12hBCVQD1PFUybNq1i8ZFs6iAuTxtshBBCCJFkZEhWAR7JkSNHBnd+ITaSE2zYHSyEEELkmQULFpjx48eb999/36ZaY8MjeXtPO+00uzGSI2nddeSRR5qTTjrJnHvuuaZv377mnnvusbHurDD+8MMPwV8UUSJDsgicqT1u3Djz/fffByX+wAPZsWNHs95668kbKYQQInf88ssvNvXegw8+aE4++WSbam2PPfawWTPOOeccayDedttt9vdPPPGETcPmLjZFPvLIIzarxk033WQNTv7GAQccYHbZZRd7hC2HUXz++efWQBXlI0OyCD/++GPFTrPhVJS1117bntkshBBC5AEypXzwwQfmwgsvtPsDMPrIofzQQw+ZAQMGWI8imVQ4tnjGjBlmzpw5dlMsxiCGp7twBP30009m7ty59mhjwtTwZrJ59uOPPzYPP/yw9WRutdVW9ns47IP/R9SdetOnT/9v8LlaOAmEZMy+cA3BF+x45Og8mDBhgjnxxBPN448/bu99gjeS1DMsbUcJgfic/+wrIJ9OgWUEFNsX1F91O1dZEjnrrLMi6zSQsRjs8l533XXN+eefbzp06BCZZ7lQB3m/V199tenTp09Q4gfaEXG8UbDsssva5+dUoLAOVgeDx3XXXWfOOOOMoMQP5BRlmayuR2DGqYN4V3g+DlHwBbIwKJOD1VGTDs6bN8+8+OKL5tlnn7UT9nJhM2RVE370rlOnTtYD1aRJk6C0PEoZB998803rLYui70O2qjZ80o7IMbzTTjvVamzm72GcnXDCCUGJH3COTJw4Mbj7A94RBuJTTz1l7rvvPjNq1KiKOXAOP/xw+04ILYuKJI6DUYOdJkMyIDyIMXPZc8897ezFJ3QM3bt3ty75pZZaKiiNhjgHsWIkTYGGDRtmNt10U6+nFO299952dl3OznveIx0/s2wGRn4OHTrUvP322+add96xBoRPPYmD5s2bW+OCU4ZkSNaNNBiSGAgsOx511FHenpNn4SABYuoWW2yxoLTu1DQOopuEJfnq95i0sky76667lpwmrtKGJN/PJII+mUMgnnvuuYqEkRWDo3KJryTWkslHuQZZXgxJLW0XgYpnZuQbOqg11lgjciNSGGt0MTnxCcswdYnBwVhk6YaTlT799FN7fCOJ0PfZZx+7k58ln379+pkPP/ww9UYkuJytItvgjfz666+9GrvoEnrk6ztZmvVpNGCUDRo0yOt3lgOrQUyCjzvuOOtJxWmSFCMSZs6caS666CKz22672UkPm26rWnkS/0OGZAHMml0Mhm+Y4bMkKqIHYyXJHQLtjVOU2JXIMg9L1nS2BJgzO7722mttB0zMjxBpxHnXRbRgLKcB+uBLLrnErtSwjI3RlkQwyjHOjz/+eDuBZ5Krdls9MiQLoBFVwhsJLJnhkRT5go1dLE8Rv9mrVy+bzuLmm2827777rvWkVCJmSAghogTDkQmxT490OeBQYiMO4UlDhgxJjcFeCRZiLb2UC3iRvi5mr8WeI66LuCW+l+WXb7/91srrE+JbOOe5VatWRZ+v3IvNERjJhe85zguZij1LXBcGV7Hn4KrEjJKYRt57sWd1FxB3R5oKgvTZ6JXH2S9txelgKVcl3hHPV6wOS73i1MFKLW0Wtu/qdJArqXpY6gXF5HJXpdplbeUrNZ4y7xDL+eijj9qNk3gp8aoWq/fqriSNg3Fc6Fe93w22ktb7MLB4ib7grGmfsYK8EGIjuQi2ZYevT5CX4OcrrrgiKIkWGhfpEnx5t2hcBP3SwfmCuqMei3HjjTeaiy++2GveMDb3ENS+0korBSV/hzohVohl67yy/PLL2/e05ZZb2jqsCWJd8eBecMEFQYkfSBVCJgd2mteFOHUQrzbtyGcaE1ZQyNu32WabBSXV6yCDMvXG8qZPNthgA1tvUezGrWkcJObvlFNOCe78cMQRR1hPHxuBSgFjl+dkl7IoDYxB+nPiJzt37hyU1kzSxsE4wE6TIRngDEli0Pbbbz8bq+YTGhs7C/fff/+gJFpkSCbTkGS5BwOgf//+QUn+SIshufrqq9uwg1IH7ELoaulD49DBSZMmWWMCHfeFDMm/I0Myu2BMkpaPcbrUPM8yJAvIiyHJLq2tt97afPfdd8Fv/EDagddffz22zTYyJGVIJpW0GJL0SRxbStuuK3S3JXa5tQLjgL7Ll36DDMm/I0My2zCebb/99jZPKP1BTeTFkNRmmwJQskpkuacTaN++fXAnhEgaGLB4/siFV9eLf08Qf9QXfZZPI1KIPEIs8iuvvGKuv/76oESADMkCWNouxSsSNU2bNq1zomMhhBBCxA8TyjvvvNN7+FuSkSFZAF6DSrDqqqsGn4QQQgiRVAgjIcek8vr+gQzJAirVMDgmzge45vG4clRg3BfvMqqL+M5KpTgRQgghHITAffbZZza2m895R5ttAtxmG3L6nXzyyUGpP6655hpz4oknBnfRQ/zUlClTzMCBA81HH31kA9/jCPoPw9m2UZ0rXL9+fRs0v+GGG9rg5WJUF2SszTbJJS2bbcRf0Wabv6PNNvmBjTQbbbSRffft2rULSv+Kdm0XkBdDEoOOXFG+efjhh+3RUXGBIfnqq6/a01OGDh0auxEZNShkly5d7HJC9+7dg9K/IkMynciQTCcyJP+ODMl8Qd/FUYrUAY6TQrRrO6ewjFoJVlxxxeBTfHz66adm7NixqTMigWcmJdOwYcOCEiGEEKJyECvJYRKVOlY5KciQLOD7778PPvmlUaNGwaf4wBuX5jhDZtKKkxRCCJEEcHDgoPnggw9yHSspQ7IAnydDhCEhuRBCCCHSA86nDz/80OZzzSsyJAsg/qoSyJAUQggh0gX7DzAkv/7666Akf8iQLKBSS6elBkoLIYQQIjl888035vPPP6+YI6rSyJAsgJ2FvuH83kUXXTS4E0IIIURawAE1ZMgQm2Ivj8iQLKAShiQpAoQQQog8Qr5hnClLLrmkdax07drVpsM74YQTbLoozra++uqrbfq6ffbZx6y55po27Qwpd5IyfmJI5jVOUoakEBWEDnThhRcO7vKLPPJC5AtyKy677LKmdevWZrvttrP5m19//XV7TPHgwYNtbmXyY2I8HnfccfagEIxKcs5+8skn9mSZSy+91B5SwR6DqA6/qCukpxs9enQuM4vIkBSigjRo0MDOrulQ8whGdNu2bas8GUIIUT1pSzvDYSMrr7yy2WqrrayR+PLLL5tnn33W9O7d22y88cb296XQpk0bm/ydpPjnnnuu6dSpU0UnpNQDeY5LOVQha+hkmwB3ss3mm29u80L5hBySceevZGfZZZddZvr27WtPU0kjnKRxzjnnmNNOOy0o+SvVZfRP6sk2QKD2nXfeaUaOHFltsng6qvCgwWf+7VdffRWUxA/LSHgAojobHh3fb7/9zLbbbvunDtaETrZJBjrZ5u9U4mSbQw891Nx0002JP9mGSWP79u3tsjUeyE022cSeDMPJL+UuT1Mnb7zxhrniiivsMcA++/kwW2yxhV2Gd31+Xk62kSEZIEMy+WTVkATUsCblL9RBBubbbrvNXHnllUFJ/NAhsuS08847ByXlgQfBDSJOB2tChmQykCH5d2RIVs0222xj/vWvf1mvoxvb6U+iMCSBJWWWxs8//3zz0Ucf/WXS7QtOqHvyySdNx44d7X1eDEktbQuRAOhwCByv7RVFB1xbij1HXa9KPL8Qwj89e/Y0W2+9dWwOIow1zus/8sgjTYsWLYJSv7Bre9KkSdZxkydkSCaASsychBBCCF/42FTISuauu+5ql87ZAe4bxvIvv/zSq0cwCSTCkAx7JQo9FOGV9xJX4VMHSz40vKzKJ4QQQkBN41y54yDpgw477LDI4rhrC3HrxZxDWRjfq7LVEmFI5t2AIraDuBst8wkhhMgyjHPFHEbODohiHFx77bVtLGYldnFjSDKmZ3E8r8pWS5Uh6aNimM1UgtmzZwefhBBCiGzh02GEAUk2iEosb3/77bfWkPQpry8SbUiSSNQZiQSp8rDugSl391UJESWVOvOandQ+5BNCCCF8w1jurmLjfHisjwJS8aywwgrBnT+mTZv2Z6haWJawfFHJ6JtithokxiMZfrHhRhW+dwLESaWy47Nl34d8QgghRCUIj/VuTC9WFgVsvOnevXtw54+5c+fanduAPVFMvqhk9E1YFnD20kK4YEu5gO31Pi6XW67Yc8R1YV3z3eR0rATjxo0r+lxRXQT/prXxhqGeisnHRaMubEvuqsQEAYUr9px1vSAJctGWij1fuZfTwZoudn9WQm6+s1gKo6RcldDvwrZQnQ5ypV0PoZhc7qqEfNX1iVVd/BvfFGsb6HKx54vq4vScSsAKI3YMMtalfsq5atLBqC4nH/pVb8aMGf8zL6sB697Xsi8vHtcwyaP5bB805k6Sl0J+Kw6Jv+GGG4JSf1xzzTXm4IMPDu6ih8ZF8mqSkv9e50FpuuA4wVNPPdUcf/zxQclfof6ox2KQiJ1k5j4Tkm+00Ub2xJqodg8W6iBe7KuvvtprYm46jvvuu8/84x//CEqiw+lgTbAx7brrrjNnnnlmUOIH6pHlsqraWCnwb+Poy4ixfu6552zCbF+gj4888ojd1OCoTgdpr9Qbx9n5hJNU7rnnnkhyC9Y0DpJw/eijjw7u/LD//vvb/o1nKwWM/wcffNCOdT7hIIO99toruPufgc8BAzxTHOP8mDFjzDrrrGP/vk9uv/12u3Mc+wX5kJPPPiZ71elg1CATY2q96dOnl2RIojxxBa7SgMC9ZO55OFzErnGFfxcHvHgy0JMV/8ILLwxK/YGBdPbZZ8cmH4bkHXfcYQ+5T7shyQH+xaD+qlIgOlrer29DkncelSFZqIPOkOzTp09QEj8Ykvfee29shiR1WBPOkDzjjDOCEj9gRGKQcKJLXUAHacP8jJrhw4fbU7niPiErDLJgHIQNyep00BmSTOh8su6660ZmSNY0DmJIHnXUUcGdH9hUUltDkhO3fBuSTDr23HNP+5nxnLEOA4v0dxgk4HQjqnEQWVdbbTUzderUoMQPnDbGCWzI5dL7gbNl4hrnoTodLBf33GF7jMmrfz98NRR7yDBxvnxHJZe2fcgnhMge9B0MykKkhUKjqqpxvxxYOnfHFfpk+vTp9mdYPkcWxvnCOkuEIekaVOFL5z48Q/FRAU2aNAk++QUXfNzyMZMmlkoIkT2cV0eIpFLdOO/Kox4H27dvH3zyBysDTg4ns29bJg6cLK6uHIkwJEt9qXEsCRXSuHHj4JNfxo4dG/uy6wYbbGA6dOjg5T0KIYQQjprGeWdgYaREScuWLYNP/qgqL7STL2oZfVFVHSbCogi/1MIXHH7wqoSIkhVXXDH45BfiKCZPnhzcxcPqq69ubrrpJhvH069fv7Iu4tM6deoU/GUhhBCiakoZ5+MwsJo1axZ88gfjeTEZ45DPJ1XVoVxTBZDAtJSdo1FDMO5XX30V3MUDy9qdO3c2Bx10kA0IL+di910lZnpCCCFEqVRildGH0ytJyJAsgODcSjQ8AuU5ozNumEVgULL7sJyLHYJaIhdCCJFkKnG6Td6QJVAA6U3atGkT3PkDQ3LYsGHBnRBCCCFE8pEhWQAeySjyjdUWDMkvvvjCJi8VQgghRPlo5Sx+9IYLqJRHkpiKWbNmmREjRgQlQgghhCiHSux5yBsyJAvAkGzXrl1w55c5c+aYIUOGBHdCCCGEKAdWGUW8yJAsgEaHRzKuI4aqgyPEBg8erBMqhBBCiAjgSFURLzIkCyCegl1eTZs2DUr8QUJydm5PmDAhKBFCCCFEXXHnXIv4kCFZBGIq2rZtG9z5gzjJiRMnmo8//jgoEUIIIURdqcTRoXk7iliGZBHq169vE3dXgkmTJpkPPvgg9uMShRBCCBE9edvgI0OyCBiSq666anDnF9L/DB8+XLu3hRBCiDL59ddfg0/+4MCOPCFDsghLLrmkPUcag7ISfPnll2bQoEHBnRBCCCHqAqt8vmnQoEHwKR/IkCwCxwg2atSoIvkk4fvvvzfvv/++GTduXFAihBBCiNry448/Bp/80aRJk+BTPpAhWQXs3K5UnCQMGDDAxkpWwi0vhBBCZIEZM2YEn/yhpW1hady4sVljjTUqlsyU3duvvfaaGT9+fFAihBBCiNpAfmbfYD/kCRmSVbD00kubDh06mOWXXz4o8c+bb75p+vfvr/O3hRBCiDowduzY4JM/ZEiKP2nVqlXFdm8DsZIPPfSQ+frrryuSC0sIIYRIM1OnTg0++aOSDqhKIEOyGthss/rqq9vNN5WCIxPvv//+irjnhRBCiDTz3XffBZ/8sMgii2izjfgf7Nxec8017c9KwfFOTzzxhL3klRRCCCFKg/HT99L2MsssY0Pj8oQMyWpgow0bblZZZZWgpDKw66xv377mrbfeCkqEEEIIUR0TJkzwvprXtGlT65XMEzIkawCPJMnJK7m8DSRVPf744+3mGyGEEKXBSo6OnM0nn376qfeVvObNm1cs20ulWOh3+E+NF1Ahvi4o9hxxXRiKxZ4DF/XGG29sVlxxRftMlYTZVa9evawxWUyGmq5i8pVz/fe//w2ezB/UUzHZuHieYs/JVYlnhWLPWdcLkiBXsWeL4qpKB4tdSWt7pV7FZInqqgSF8lWng1yVqDeWN0lKXfisdbmgmFzuqlS7rG3b5P/3TbG2QVmx54vq+vDDD4Nv9wd7K8J9WRT9Rm2umnQw6gvq/frrryW1fFLQ+JzVLbroomaJJZYI7uLnl19+MfPmzQvu/spXX31lTjjhBJsgPAlg1F500UVmv/32s++plE6BCkc+V/Hlwjs5++yzzeuvvx6UxA+xJ3znqaeeGpT8FeSjHotxww032Hfmsw1vuumm5oEHHjArrbRSUFIehTrI4Ihcl19+eVASPyzZ3HfffWavvfYKSqKjOh0MM3/+fHPrrbeaPn36BCV+2Hrrrc1jjz1mll122aCkdkStg2G++OIL06NHD6/LeOjjs88+azbbbLOgpHodpL3ecsst5uKLLw5K/NCxY0dz8803m8033zwoqTs1jYP//ve/zcknnxzc+eGQQw4xN954Y8njJYdc3HPPPdYp4RPezW677Rbc/QGeO44kjsOwxaCizt97772gxA9nnHGGOfHEE219IBfy+fRQVqeDcYCcvxuwxa3awgvoAH1dUOw54rrCM4jCq127dmbdddc1Sy21lH2uSkOy8t69e5vzzz/fjBo1yjaaYjIVXsVkq+uFknL5prrZXXUzsUo8KxR7zrpeUGm5+L6ZM2cWfb5yr+p0MHzxDJWoz+raXqlXMXmiuipBoXzUS7Fnc1cl6o2BdfLkyX971rpcUEwud6WlXfJvfFOsbVBW7PmiuEib9/nnnwff7o+2bdv+pS+Lot+ozVWTDkZ9wR+aIaqFhrDddtslYnnbQY7Ja665xvzrX/8yTz75pE1xwBKOyA+ug/IJndRnn30W3AlROyphwMyePdtOuEW+eOaZZ+zqhU8WW2wxs/LKK2uzjSjOeuutZ7p27WobSlLAcHz77bfNkUceaZd7WXYbNmyYt+WtSgwK4n/w/n2f6YohyTnwlTi/VqQbJj2E4vgGQ5Klf5bWRT5gc+oLL7zg/VQ4Ntost9xyuRsbZUiWCAbkPvvsU+f4qDiho8Qrecwxx5hTTjnFXHHFFdaoJJk5ChVVXCBKySkBeKT421OmTAl+IyoBnZXPOGLAkMT7/eKLLwYlQpQGXppKhAcRE8gypw9Pum8PmPg7hHo9+uij5ssvv/xz6dUXpApMSgicT2RI1oINNtjAbLLJJomdbcyaNctufiGYnYBvvJSnn366Offcc831119vHnnkEWsAvP/++2bQoEFmyJAhNj0CP9ndRhkbit59913z6quv2kB6FPK2224zV111lbnwwgttXOZ5551nrr32WrvhRlQOPDyVSHw7Z84cc++996r+Ra1wGysqsexHW33ttddi80qyCkTf+tJLLwUlohA2vZB5JG5YMeFoYWK5fcORynk0JOv9FxdDCRCw7HO2xZKdzwphmbiUJeGPPvrI7jxjME0LdNwNGjQw9evXtx05PzFC6Nj5HTM4Zm40BS5m8G53okudMXfuXPvZ9wwvDLtEzznnHHPaaacFJX+F+qsqTpRdjRjYvndt06FFtWu7UAepNwaugw46KCjxB+1p3333tTsUW7duHZSWR6k6SNtk1/YFF1wQlPiBXdGPP/54Wbu26Tfi0CGWbrfddltvYS2APj7//PN/2bVdnQ7CU089ZfPh0p/4hMk/OYEvvfRSs80229TZmC3UQfpGJuHPPfecTcv2zTffeO8jDz30UHPTTTfVatf23XffbQ4//PCgxA8NGza0qfTQIzIgsAxMPTAZjsI5w9hFaBcOD/pF6sonjKnsW9hzzz3/DDlCLuTzOXmqSQejBjtNHslastZaa5mePXsGd+kAg4OYtnHjxtklnqFDh5qPP/7YLk8ze+MnBjJleCdRRmbwBKjzb/i3DN6VNCLF32EisPzyy3uPkwQMIjzcZA9gAPXZcYn04iayvsHIYAfvZZddZt54442yJ5R4uzBWmEihA0wY6VvVR1YN4wjvjHRlhGGxyvXJJ59EEsfI32A17qyzzrKrab6NSKAvbtWqVaL2UfhChmQtYWbBcnGLFi2CEiEqA7NdZoN4hioBoRSEP5DHjjyrDNC+PU0iXeCdYcCtBEx2Bg4caI499libUxbDr8QFOQuTJ5bH8YTvscceNnzoiSeeMCNGjIjEGMoDGNrE7RM+xSrRAQccYD14GJeEVdW2/6BOcYYQxkVeTIxJn175MCxrN2nSJBLvatrQ0nYADbI2DfDBBx80xx13XHAnfKCl7b/rIJ5jOlBiXSsFHSe7cdFZjIR11lnHdqqkwcD7xMVzswyI8clAMn36dDNmzBhbTqgIy510RaXooJa2/05alrZZDUGHidOuFLRXvEaEZ6y22mpmww03NGussYY9I5m6pR0jx7Rp02z+yeHDh1v9QteoP/oQrtoYoXGSlqXtqmBlhf6DOmGiwYYVVv4ImWncuLFp1KjRn7Kh+3g2x48fbzfTsIo2evRo24/47NuLwfvEoF1hhRWCkvwsbcuQDKitIUmHcsQRR5iXX345KBFxI0Py7zo4duxYe9oPqS7SCoN3v379rHeiFB2UIfl30mJIEi5DDBuebBENaTckswD2St++fc3ee+/9l1Ns8mJIamm7jtA4iI8hJkKISoESt2zZMrhLJxj3LA+K7IN3iU0WQmQJVmDwoIaNyDwhQ7KOMNNo3769jQ2rVIyaECzPderUKbcdmEgXtFc89L7znwoRF9gCXbp0sUcp5xUZkmXADkSWk3bffXf7WQjfEFeER5L4LiGSDilSaK/ySoqsQKgLMbbh2Mi8IUOyTDh/mzx+3bp1q8jxX0I0a9bMdO7cObgTItm0adMm9eEYQjhY1l577bXtJCmvyJAsE9zaLC1y3jXubS0xCt/g3WGXo8+AbiHqCrv5CQvSxFukHVYi1113XdOhQ4egJJ/IkIwAOkQy9pNklQ4S41IIX7Dxi6UVvONCJB3aK6fMkNpFiDSDZ32LLbawbTrPyJCMCLb/c+wT+fCUrFz4hIkL+fAwJoVIAxtttJFd4hYirRCfzirkBhtsEJTkFxmSEUIqlp133tnm9avU6Q0in5CGapNNNrHpVYRIOixvMwCzi1uINMIK0D777KOsLb8jQzJiMCb/+c9/2gSxlThTVuQTwitImC2vpEgDxPPuuuuu2r0tUgkrkJtvvrkNaRMyJGMBl/c222xjz2XNc0oA4RfymHXv3l1eSZEKmPRstdVWyikpUgfxvaeffro2jAXIkIyRjh07mv/85z82HogZjBBxw1LL+uuvrx3cIhUQU65YSZEmGMs5qlfe9P8hQzJmOID+tttus2dw4p3Mc66pcmBDCYlftdOzeojNJRVV27ZtlT1AJB4S6Z988smKMxOpgAl6z549zZ577hmUCEicVVM4+P33v/8NPv31c1pAHo4EO++886wrnF1eOgWndpCbE8MIY5ylW1E9m266qTnssMNMw4YNgxIhkstuu+1m9ttvP63aZADCFJgUZHESixOIuMiLLrqoWvmcnZI1WwbCMoU/J8KQLPWlprVxIt9yyy1nDjjgAHPJJZfYGQ3GpZKX1wweyF122cW+N5YT2J0sqgc9OfDAA83BBx+sXbEi8dBee/fubTNeZDnmDAOLCTEx9FmFMAXCawjrylJ4DW2UjTUXX3yxHcurgrGe/7cmW6Wm3yeV3377Lfj0VxJhSIZfKg8aNiz5HffuSiOuYdGBEL92xhlnmDPPPNPssMMOWtKpApR1p512MhdeeKG5+uqrzV577aV3VQvw7px44onmqKOOqrbjEyIJoNukTUPns+aZxDheffXVrS4efvjhme7HSInTq1cvO+lnIxVZTNIODp/NNtvMnHXWWXZDY3W4sR5bpTpbJq04+SAsX2IMSfdwPFj4M7j7NBOWgbORmbXhZePacsst5Z0MwANJWpArr7zSXsT7tW7dOvitqA2ctsBpS6eccor1gAuRZGijeCbpG7NggLAUygrKIYccYifEGJJZ3qWOvBjJHMhB1pJzzz3X9j94KdM6hjOp2W677azzZ5111qlxnC5mu/DZ3aedwnp09ws5IWu6gH8Ux+XgM42RyuKzs3jd90P4maK+ws8U9QXuM/LhncT9f+ihh5prrrnG3HrrrWbbbbfNZZwQ74RBhLi+m2++2Vx++eXmoIMO+vP80mJ1Vexy77fYVSlDvdhz1vWCYrJVd9Gxs8RNXA8JoJO82QsZi8lQ7KoUhXVS26uYLFFdlSBK+dBRPD4nnXSSOe6441J75CeysLESA7Jfv352IkdsHZsFMbLiMJIL66GUK2oY06gzxjCWtZ0Xtm/fvnZykLa9AaRR23///e3qIedpI1dhmy28HHx2tkyxdx4ui/oqfKYorzBh+erNnj27pBZFw/AVv8KD/frrr+aXX36xn33gjDsfIBNGMvI5Y/nnn38248ePN8OGDTPPPfeceeONN8z06dODf5FN3JLPjjvuaDtaTrtAeevazqi/qgzG+++/33ZqP/30U1ASP2x6ueOOOyJLE1GODiL3559/bu6++27zyCOPmBkzZgS/qTwMMHieiT8qRQfnz59vbrjhBrvU5BNWDmhHdV2apCN2g1HUDB8+3La3OXPmBCXxQ/ztY489Zk9UclSng6VCfzhz5kzz5ptv2noeNGiQ7R/TAAYkMfCE4rRv396usIQnb8iGh+utt96yfX8UEHtP+E+pnk7G1gceeMAa61GCrBhdpHQKw/dNmTLF9j933XWXeeGFF8y8efOC3yYP6osJDaFBhFo0adKkThNw6pqLcZ53wOc4dL+QKHSwVJx89X43Vkqy1GikvmYUPNyCBQtsY0PZfLx8BmhfB6+7lz937lzbwMDJSIf5448/mrFjx5rXX3/dPPPMM+bLL79MTUdaCijm9ttvb6+11lrLngBE+6qLsoah/qoytEaPHm1nld9//31QEj/ECrEkElWMYrk6iC5haPTv399cf/315p133rFGWaVBpqOPPtr06dOnJB1EZ0ipheeKfsIHdMy019tvv73Oqwa0b4yvctt5Mb744gt71v+ECROCkvjBw8ahC+G4sep0sLZQt5MmTbLGOyeF8Zm+M2nQNlhdwqDbfffdbf/Ge6iqnvFQYiBH1afz90477bSSHSH0A6+++qrZd999g5JooB2wslZVZg2+lwnsJ598YvWItpM0Zwl9ESs4RxxxhF0RKycMgbbKxXjunGI+bJkodbAmkAk7beHevXv3CcqqJU6PZLhz4EVzMVi4QcKVxVkJdAalKmJtKSYfZWHvGJ0O5fyk8dIZsRSJa/0f//iHzQ/4ww8/2JldGmnZsqXtZAnCJi6UWTk5NjEiaVdR1G11MzEGPWJcBg8ebKZNmxaUxgPysMPv1FNPtUv2UbXbcnWQ56Bt4SnZY489bPuiI//uu+8i847UBTwZbLTAc1uKDqIjeAWZHIwYMeIv+hUXxHkxKaDN1hXef1weSd4bg9XAgQPtTx/g0WKndVie6nSwtvB30Ntu3brZ1F98ZsUmKd4s+mQyShDLfcEFF5gtttjCltVUx6y84CCYNWtWUFJ3MGDxzDNelNqu+P94l2PGjDEjR46MRH8wwFi+ZjNRdfXP/0fMO8cI47llkj1u3Dj7LnzocVXQt5Ib8t5777VhVexjqEtf62TgHbv6YJx3/asb5+MkSh0sJFxHTkbstMR5JHlQHo6Xj8eOz+7h3e/igEZTijekXJwMdPYYhuGKKUU+lP/dd9+115AhQ6xRREXy9zC+nQvdNygIyugu3iWdHIMAS4J8poONsw5LmYnx/ZMnTy5rJuxkwJtnlej3z+6d85nOkRyO5Rh9xYhLB0eNGmU70BdffNEaZnhKuGhLURmYtA86Ny7eC+9nzTXXtN4LJhUkpq6tDmJQ4KWqrWHh6g/56GNc3YH7XRiemYG63N22vIO4PJJAXeFxD0823apHuI0Wk7G28C6KxTDG7Q1B51gaZWn2gw8+sH0obZX+L67JEPXvJnHoNpk3MITwAGNw1AUMp48//vhPo5/64Hv46T7znU4X+RyuMz5jMJQTc0nfVag/fE9d/h7/pjabIl0bRP6pU6eajz76yPY/hHTxTK5OucL6GQWuD+L9MUFkcyfe5HImiYWEn5k2ihzIG6UOVkXcOuhwMlg7LQmGZPilus/FDMk4qe0gVlecfDQsGpgrC7+DUqEjYDZHfBTxJ9988401NBlM+Pu8Q36GldIZmvysDSif69xQQKeIGId0InRoq666quncubNNur7aaqvZf8d3+qrDOBUoXD/uM+2Td+xLvrh1kIGYNvTee+9Zzy3tCqObgYa2Rjui3YSvQtyEgrZC++DimfE60lETE0uIQadOnf42YKVRB2tD3IakI9wWiw1iceJLB2l7tE3iKDEoaass6zudpL26Po+Lf1udocnfDRsYXOgbKybsvKZfIxaUiTGTnjgIy+c+520cpI/BS0pcLI6Sr776yjpL3KTd1avri4B6de8G3eLvcrk+iJ+MU1zIxooMK0bE5TOZjaNPDddVVnXQfU6dIRn+HDWVUiAnjysvF5QLxcMrMXHiRDvbw7BkBjx79mwbI8e7dY2b7+XfFHayPAsK6C6WQuhUMQjoSLmYjbNMgxHJuwsPkPxd9x3uPgr5qqMSClRoSIY/R41vHUQ+NoAxQNOWaFO0I2J+aEcu9sfBv6GN4LXBY8WyPp48PBUs+WFgVkdWdLAq4jYkC5+f+7zoIH0Y/RwTITxaxJgTj0dfSJvFEOGin3MX/56+jfpAt6gb17fRp+Gt4qI9uzrTOBgNTr6adBDDkQkD9YnThM/UM+Ma/456pF5dG3eTAPoa6pNwGcYu+iLCq6hPflLvcVD4/NznQQcTudkGnAL5wpcCOQoVKG7CgxjKx/e7jpV3zQwvjOtcUUrqvbaKV6hAPohTgYrhBjFfJFUHo+oc86SDPpAO/gHvgXfART/HxWfqgf6N58VbVUofp3EwWsrVQSYQ/Fsu+iAu6rWq/kg6GD20Tz9vUyQK14HiNWK2zQycGVv4YiZHKh4aZVyzN5ENojAihYgL2icDKwYgfR7ecfo8UvXgrSLEQn1cOqHe8D5Svy6kRv2Rb4z5f5+MdSAOJ26aAAAAAElFTkSuQmCC;" vertex="1" parent="1">
          <mxGeometry x="461.45" y="200" width="55.06" height="40" as="geometry" />
        </mxCell>
        <mxCell id="Hievig5KLjoYhDcm_fqx-14" value="" style="shape=image;verticalLabelPosition=bottom;labelBackgroundColor=default;verticalAlign=top;aspect=fixed;imageAspect=0;image=https://www.clipartmax.com/png/middle/118-1186067_prometheus-software-logo-prometheus-monitoring.png;" vertex="1" parent="1">
          <mxGeometry x="640" y="200" width="39.58" height="39.82" as="geometry" />
        </mxCell>
        <mxCell id="Hievig5KLjoYhDcm_fqx-15" value="" style="shape=cylinder3;whiteSpace=wrap;html=1;boundedLbl=1;backgroundOutline=1;size=15;" vertex="1" parent="1">
          <mxGeometry x="95" y="10" width="30" height="60" as="geometry" />
        </mxCell>
      </root>
    </mxGraphModel>
  </diagram>
</mxfile>
